<?xml version="1.0" encoding="utf-8" standalone="no"?>
<!DOCTYPE svg PUBLIC "-//W3C//DTD SVG 1.1//EN"
  "http://www.w3.org/Graphics/SVG/1.1/DTD/svg11.dtd">
<svg xmlns:xlink="http://www.w3.org/1999/xlink" width="998.64pt" height="251.540215pt" viewBox="0 0 998.64 251.540215" xmlns="http://www.w3.org/2000/svg" version="1.1">
 <metadata>
  <rdf:RDF xmlns:dc="http://purl.org/dc/elements/1.1/" xmlns:cc="http://creativecommons.org/ns#" xmlns:rdf="http://www.w3.org/1999/02/22-rdf-syntax-ns#">
   <cc:Work>
    <dc:type rdf:resource="http://purl.org/dc/dcmitype/StillImage"/>
    <dc:date>2026-01-29T00:52:53.939762</dc:date>
    <dc:format>image/svg+xml</dc:format>
    <dc:creator>
     <cc:Agent>
      <dc:title>Matplotlib v3.9.4, https://matplotlib.org/</dc:title>
     </cc:Agent>
    </dc:creator>
   </cc:Work>
  </rdf:RDF>
 </metadata>
 <defs>
  <style type="text/css">*{stroke-linejoin: round; stroke-linecap: butt}</style>
 </defs>
 <g id="figure_1">
  <g id="patch_1">
   <path d="M 0 251.540215 
L 998.64 251.540215 
L 998.64 0 
L 0 0 
z
" style="fill: #ffffff"/>
  </g>
  <g id="axes_1">
   <g id="patch_2">
    <path d="M 82.175585 64.78494 
Q 102.555407 123.218023 82.209049 181.651108 
L 82.261515 181.669376 
Q 82.205383 181.703875 82.149236 181.738333 
Q 82.126698 181.676431 82.104117 181.614571 
L 82.156583 181.632839 
Q 102.496574 123.218038 82.123128 64.803235 
L 82.175585 64.78494 
z
" clip-path="url(#p4c13d63f50)" style="fill: #2e86ab; opacity: 0.8; stroke: #2e86ab; stroke-linecap: round"/>
   </g>
   <g id="patch_3">
    <path d="M 137.887283 64.78494 
Q 158.267105 123.218023 137.920747 181.651108 
L 137.973213 181.669376 
Q 137.917081 181.703875 137.860935 181.738333 
Q 137.838396 181.676431 137.815815 181.614571 
L 137.868281 181.632839 
Q 158.208272 123.218038 137.834826 64.803235 
L 137.887283 64.78494 
z
" clip-path="url(#p4c13d63f50)" style="fill: #2e86ab; opacity: 0.8; stroke: #2e86ab; stroke-linecap: round"/>
   </g>
   <g id="patch_4">
    <path d="M 108.539879 181.783726 
Q 88.213328 123.50338 108.375008 65.222993 
L 108.112495 65.132179 
Q 108.391654 64.962463 108.671141 64.793743 
Q 108.785079 65.09968 108.900034 65.404623 
L 108.637521 65.313808 
Q 88.507386 123.503009 108.802162 181.692249 
L 108.539879 181.783726 
z
" clip-path="url(#p4c13d63f50)" style="fill: #a23b72; opacity: 0.8; stroke: #a23b72; stroke-width: 5; stroke-linecap: round"/>
   </g>
   <g id="patch_5">
    <path d="M 164.251577 181.783726 
Q 143.925026 123.50338 164.086706 65.222993 
L 163.824193 65.132179 
Q 164.103352 64.962463 164.382839 64.793743 
Q 164.496777 65.09968 164.611733 65.404623 
L 164.349219 65.313808 
Q 144.219084 123.503009 164.51386 181.692249 
L 164.251577 181.783726 
z
" clip-path="url(#p4c13d63f50)" style="fill: #a23b72; opacity: 0.8; stroke: #a23b72; stroke-width: 5; stroke-linecap: round"/>
   </g>
   <g id="patch_6">
    <path d="M 123.266038 65.233019 
C 127.575388 65.233019 131.708819 63.520896 134.755989 60.473725 
C 137.80316 57.426554 139.515283 53.293124 139.515283 48.983774 
C 139.515283 44.674423 137.80316 40.540993 134.755989 37.493822 
C 131.708819 34.446651 127.575388 32.734528 123.266038 32.734528 
C 118.956688 32.734528 114.823257 34.446651 111.776086 37.493822 
C 108.728915 40.540993 107.016792 44.674423 107.016792 48.983774 
C 107.016792 53.293124 108.728915 57.426554 111.776086 60.473725 
C 114.823257 63.520896 118.956688 65.233019 123.266038 65.233019 
z
" clip-path="url(#p4c13d63f50)" style="fill: #1b4965; stroke: #2c3e50; stroke-width: 2; stroke-linejoin: miter"/>
   </g>
   <g id="patch_7">
    <path d="M 123.266038 213.797547 
C 127.575388 213.797547 131.708819 212.085424 134.755989 209.038253 
C 137.80316 205.991083 139.515283 201.857652 139.515283 197.548302 
C 139.515283 193.238952 137.80316 189.105521 134.755989 186.05835 
C 131.708819 183.01118 127.575388 181.299057 123.266038 181.299057 
C 118.956688 181.299057 114.823257 183.01118 111.776086 186.05835 
C 108.728915 189.105521 107.016792 193.238952 107.016792 197.548302 
C 107.016792 201.857652 108.728915 205.991083 111.776086 209.038253 
C 114.823257 212.085424 118.956688 213.797547 123.266038 213.797547 
z
" clip-path="url(#p4c13d63f50)" style="fill: #5fa8d3; stroke: #2c3e50; stroke-width: 2; stroke-linejoin: miter"/>
   </g>
   <g id="text_1">
    <!-- (a) -->
    <g transform="translate(116.853381 241.987246) scale(0.11 -0.11)">
     <defs>
      <path id="TimesNewRomanPS-BoldMT-28" d="M 2056 4334 
L 2056 4191 
Q 1731 3978 1578 3775 
Q 1366 3494 1247 3053 
Q 1097 2506 1097 1525 
Q 1097 600 1233 87 
Q 1369 -425 1603 -741 
Q 1766 -959 2056 -1125 
L 2056 -1281 
Q 1303 -1028 779 -248 
Q 256 531 256 1544 
Q 256 2544 778 3314 
Q 1300 4084 2056 4334 
z
" transform="scale(0.015625)"/>
      <path id="TimesNewRomanPS-BoldMT-61" d="M 1828 431 
Q 1294 -41 869 -41 
Q 619 -41 453 123 
Q 288 288 288 534 
Q 288 869 575 1136 
Q 863 1403 1828 1847 
L 1828 2141 
Q 1828 2472 1792 2558 
Q 1756 2644 1656 2708 
Q 1556 2772 1431 2772 
Q 1228 2772 1097 2681 
Q 1016 2625 1016 2550 
Q 1016 2484 1103 2388 
Q 1222 2253 1222 2128 
Q 1222 1975 1108 1867 
Q 994 1759 809 1759 
Q 613 1759 480 1878 
Q 347 1997 347 2156 
Q 347 2381 525 2586 
Q 703 2791 1022 2900 
Q 1341 3009 1684 3009 
Q 2100 3009 2342 2832 
Q 2584 2656 2656 2450 
Q 2700 2319 2700 1847 
L 2700 713 
Q 2700 513 2715 461 
Q 2731 409 2762 384 
Q 2794 359 2834 359 
Q 2916 359 3000 475 
L 3094 400 
Q 2938 169 2770 64 
Q 2603 -41 2391 -41 
Q 2141 -41 2000 76 
Q 1859 194 1828 431 
z
M 1828 659 
L 1828 1638 
Q 1450 1416 1266 1163 
Q 1144 994 1144 822 
Q 1144 678 1247 569 
Q 1325 484 1466 484 
Q 1622 484 1828 659 
z
" transform="scale(0.015625)"/>
      <path id="TimesNewRomanPS-BoldMT-29" d="M 78 -1281 
L 78 -1138 
Q 403 -922 556 -719 
Q 766 -438 888 0 
Q 1038 550 1038 1531 
Q 1038 2456 902 2967 
Q 766 3478 531 3794 
Q 369 4013 78 4178 
L 78 4334 
Q 831 4081 1354 3301 
Q 1878 2522 1878 1509 
Q 1878 513 1354 -257 
Q 831 -1028 78 -1281 
z
" transform="scale(0.015625)"/>
     </defs>
     <use xlink:href="#TimesNewRomanPS-BoldMT-28"/>
     <use xlink:href="#TimesNewRomanPS-BoldMT-61" x="33.300781"/>
     <use xlink:href="#TimesNewRomanPS-BoldMT-29" x="83.300781"/>
    </g>
   </g>
   <g id="text_2">
    <!-- $v_1$ -->
    <g style="fill: #ffffff" transform="translate(117.806038 51.897602) scale(0.13 -0.13)">
     <defs>
      <path id="STIXGeneral-Italic-76" d="M 1325 448 
L 1523 653 
Q 1869 1005 2134 1456 
Q 2400 1907 2400 2131 
Q 2400 2208 2285 2317 
Q 2125 2458 2125 2605 
Q 2125 2701 2195 2761 
Q 2266 2822 2368 2822 
Q 2522 2822 2624 2704 
Q 2726 2586 2726 2445 
Q 2726 2074 2323 1453 
Q 1971 909 1562 474 
Q 1504 416 1421 326 
Q 1338 237 1299 192 
Q 1261 147 1200 86 
Q 1139 26 1110 -3 
Q 1082 -32 1043 -64 
Q 1005 -96 979 -105 
Q 954 -115 928 -115 
Q 870 -115 870 58 
L 870 211 
Q 870 1094 717 1990 
Q 653 2355 579 2470 
Q 506 2586 326 2586 
Q 198 2586 128 2579 
L 128 2662 
Q 480 2720 845 2797 
Q 915 2822 973 2822 
Q 1011 2822 1033 2739 
Q 1056 2656 1165 2093 
Q 1280 1510 1325 448 
z
" transform="scale(0.015625)"/>
      <path id="STIXGeneral-Regular-31" d="M 2522 0 
L 755 0 
L 755 96 
Q 1107 115 1235 227 
Q 1363 339 1363 608 
L 1363 3482 
Q 1363 3795 1171 3795 
Q 1082 3795 883 3718 
L 710 3654 
L 710 3744 
L 1856 4326 
L 1914 4307 
L 1914 486 
Q 1914 275 2042 185 
Q 2170 96 2522 96 
L 2522 0 
z
" transform="scale(0.015625)"/>
     </defs>
     <use xlink:href="#STIXGeneral-Italic-76" transform="translate(0 0.90625)"/>
     <use xlink:href="#STIXGeneral-Regular-31" transform="translate(44.399994 -12.321875) scale(0.7)"/>
    </g>
   </g>
   <g id="text_3">
    <!-- $v_2$ -->
    <g style="fill: #ffffff" transform="translate(117.806038 200.46213) scale(0.13 -0.13)">
     <defs>
      <path id="STIXGeneral-Regular-32" d="M 3034 877 
L 2688 0 
L 186 0 
L 186 77 
L 1325 1286 
Q 1773 1754 1965 2144 
Q 2157 2534 2157 2950 
Q 2157 3379 1920 3616 
Q 1683 3853 1267 3853 
Q 922 3853 720 3673 
Q 518 3494 326 3021 
L 192 3053 
Q 301 3648 630 3987 
Q 960 4326 1523 4326 
Q 2054 4326 2380 4006 
Q 2707 3686 2707 3200 
Q 2707 2477 1888 1613 
L 832 486 
L 2330 486 
Q 2541 486 2665 569 
Q 2790 653 2944 915 
L 3034 877 
z
" transform="scale(0.015625)"/>
     </defs>
     <use xlink:href="#STIXGeneral-Italic-76" transform="translate(0 0.90625)"/>
     <use xlink:href="#STIXGeneral-Regular-32" transform="translate(44.399994 -12.321875) scale(0.7)"/>
    </g>
   </g>
  </g>
  <g id="axes_2">
   <g id="patch_8">
    <path d="M 332.923331 64.769208 
Q 353.28124 123.139462 333.011428 181.509727 
L 333.154162 181.559293 
Q 333.003065 181.648957 332.851878 181.738333 
Q 332.789066 181.574319 332.725962 181.410595 
L 332.868695 181.460161 
Q 353.121257 123.13957 332.780665 64.818967 
L 332.923331 64.769208 
z
" clip-path="url(#pac0ac497e0)" style="fill: #2e86ab; opacity: 0.8; stroke: #2e86ab; stroke-width: 2.719701; stroke-linecap: round"/>
   </g>
   <g id="patch_9">
    <path d="M 346.877704 64.759984 
Q 367.221387 123.089449 347.000503 181.418936 
L 347.196194 181.486775 
Q 346.988089 181.61283 346.779802 181.738333 
Q 346.694744 181.510519 346.609121 181.283257 
L 346.804812 181.351096 
Q 367.002107 123.089655 346.682141 64.828191 
L 346.877704 64.759984 
z
" clip-path="url(#pac0ac497e0)" style="fill: #2e86ab; opacity: 0.8; stroke: #2e86ab; stroke-width: 3.728092; stroke-linecap: round"/>
   </g>
   <g id="patch_10">
    <path d="M 360.734075 64.78494 
Q 381.113897 123.218023 360.76754 181.651108 
L 360.820006 181.669376 
Q 360.763873 181.703875 360.707727 181.738333 
Q 360.685188 181.676431 360.662608 181.614571 
L 360.715074 181.632839 
Q 381.055065 123.218038 360.681619 64.803235 
L 360.734075 64.78494 
z
" clip-path="url(#pac0ac497e0)" style="fill: #2e86ab; opacity: 0.8; stroke: #2e86ab; stroke-linecap: round"/>
   </g>
   <g id="patch_11">
    <path d="M 374.733553 64.759984 
Q 395.077236 123.089449 374.856352 181.418936 
L 375.052043 181.486775 
Q 374.843938 181.61283 374.635651 181.738333 
Q 374.550593 181.510519 374.46497 181.283257 
L 374.660661 181.351096 
Q 394.857956 123.089655 374.53799 64.828191 
L 374.733553 64.759984 
z
" clip-path="url(#pac0ac497e0)" style="fill: #2e86ab; opacity: 0.8; stroke: #2e86ab; stroke-width: 3.728092; stroke-linecap: round"/>
   </g>
   <g id="patch_12">
    <path d="M 388.635029 64.769208 
Q 408.992938 123.139462 388.723127 181.509727 
L 388.86586 181.559293 
Q 388.714763 181.648957 388.563576 181.738333 
Q 388.500764 181.574319 388.43766 181.410595 
L 388.580393 181.460161 
Q 408.832955 123.13957 388.492363 64.818967 
L 388.635029 64.769208 
z
" clip-path="url(#pac0ac497e0)" style="fill: #2e86ab; opacity: 0.8; stroke: #2e86ab; stroke-width: 2.719701; stroke-linecap: round"/>
   </g>
   <g id="patch_13">
    <path d="M 359.275881 181.772091 
Q 338.932198 123.442627 359.153082 65.11314 
L 358.957391 65.0453 
Q 359.165496 64.919246 359.373782 64.793743 
Q 359.458841 65.021557 359.544463 65.248819 
L 359.348773 65.180979 
Q 339.151478 123.442421 359.471444 181.703885 
L 359.275881 181.772091 
z
" clip-path="url(#pac0ac497e0)" style="fill: #a23b72; opacity: 0.8; stroke: #a23b72; stroke-width: 3.728092; stroke-linecap: round"/>
   </g>
   <g id="patch_14">
    <path d="M 373.170445 181.783726 
Q 352.843894 123.50338 373.005574 65.222993 
L 372.743061 65.132179 
Q 373.02222 64.962463 373.301707 64.793743 
Q 373.415645 65.09968 373.530601 65.404623 
L 373.268087 65.313808 
Q 353.137952 123.503009 373.432728 181.692249 
L 373.170445 181.783726 
z
" clip-path="url(#pac0ac497e0)" style="fill: #a23b72; opacity: 0.8; stroke: #a23b72; stroke-width: 5; stroke-linecap: round"/>
   </g>
   <g id="patch_15">
    <path d="M 387.13173 181.772091 
Q 366.788047 123.442627 387.008931 65.11314 
L 386.81324 65.0453 
Q 387.021345 64.919246 387.229632 64.793743 
Q 387.31469 65.021557 387.400313 65.248819 
L 387.204622 65.180979 
Q 367.007327 123.442421 387.327293 181.703885 
L 387.13173 181.772091 
z
" clip-path="url(#pac0ac497e0)" style="fill: #a23b72; opacity: 0.8; stroke: #a23b72; stroke-width: 3.728092; stroke-linecap: round"/>
   </g>
   <g id="patch_16">
    <path d="M 401.026294 181.783726 
Q 380.699743 123.50338 400.861423 65.222993 
L 400.59891 65.132179 
Q 400.878069 64.962463 401.157556 64.793743 
Q 401.271494 65.09968 401.38645 65.404623 
L 401.123936 65.313808 
Q 380.993801 123.503009 401.288577 181.692249 
L 401.026294 181.783726 
z
" clip-path="url(#pac0ac497e0)" style="fill: #a23b72; opacity: 0.8; stroke: #a23b72; stroke-width: 5; stroke-linecap: round"/>
   </g>
   <g id="patch_17">
    <path d="M 414.987579 181.772091 
Q 394.643896 123.442627 414.86478 65.11314 
L 414.669089 65.0453 
Q 414.877194 64.919246 415.085481 64.793743 
Q 415.170539 65.021557 415.256162 65.248819 
L 415.060471 65.180979 
Q 394.863176 123.442421 415.183142 181.703885 
L 414.987579 181.772091 
z
" clip-path="url(#pac0ac497e0)" style="fill: #a23b72; opacity: 0.8; stroke: #a23b72; stroke-width: 3.728092; stroke-linecap: round"/>
   </g>
   <g id="patch_18">
    <path d="M 373.968679 65.233019 
C 378.278029 65.233019 382.41146 63.520896 385.458631 60.473725 
C 388.505802 57.426554 390.217925 53.293124 390.217925 48.983774 
C 390.217925 44.674423 388.505802 40.540993 385.458631 37.493822 
C 382.41146 34.446651 378.278029 32.734528 373.968679 32.734528 
C 369.659329 32.734528 365.525898 34.446651 362.478728 37.493822 
C 359.431557 40.540993 357.719434 44.674423 357.719434 48.983774 
C 357.719434 53.293124 359.431557 57.426554 362.478728 60.473725 
C 365.525898 63.520896 369.659329 65.233019 373.968679 65.233019 
z
" clip-path="url(#pac0ac497e0)" style="fill: #1b4965; stroke: #2c3e50; stroke-width: 2; stroke-linejoin: miter"/>
   </g>
   <g id="patch_19">
    <path d="M 373.968679 213.797547 
C 378.278029 213.797547 382.41146 212.085424 385.458631 209.038253 
C 388.505802 205.991083 390.217925 201.857652 390.217925 197.548302 
C 390.217925 193.238952 388.505802 189.105521 385.458631 186.05835 
C 382.41146 183.01118 378.278029 181.299057 373.968679 181.299057 
C 369.659329 181.299057 365.525898 183.01118 362.478728 186.05835 
C 359.431557 189.105521 357.719434 193.238952 357.719434 197.548302 
C 357.719434 201.857652 359.431557 205.991083 362.478728 209.038253 
C 365.525898 212.085424 369.659329 213.797547 373.968679 213.797547 
z
" clip-path="url(#pac0ac497e0)" style="fill: #5fa8d3; stroke: #2c3e50; stroke-width: 2; stroke-linejoin: miter"/>
   </g>
   <g id="text_4">
    <!-- (b) -->
    <g transform="translate(367.247507 241.987246) scale(0.11 -0.11)">
     <defs>
      <path id="TimesNewRomanPS-BoldMT-62" d="M 1347 4238 
L 1347 2628 
Q 1716 3009 2153 3009 
Q 2453 3009 2718 2832 
Q 2984 2656 3134 2331 
Q 3284 2006 3284 1581 
Q 3284 1103 3093 712 
Q 2903 322 2584 117 
Q 2266 -88 1856 -88 
Q 1619 -88 1434 -12 
Q 1250 63 1072 231 
L 588 -84 
L 481 -84 
L 481 3631 
Q 481 3884 459 3944 
Q 428 4031 361 4073 
Q 294 4116 134 4122 
L 134 4238 
L 1347 4238 
z
M 1347 2350 
L 1347 1050 
Q 1347 653 1366 544 
Q 1397 359 1515 245 
Q 1634 131 1819 131 
Q 1978 131 2092 222 
Q 2206 313 2282 581 
Q 2359 850 2359 1550 
Q 2359 2222 2191 2472 
Q 2069 2653 1863 2653 
Q 1594 2653 1347 2350 
z
" transform="scale(0.015625)"/>
     </defs>
     <use xlink:href="#TimesNewRomanPS-BoldMT-28"/>
     <use xlink:href="#TimesNewRomanPS-BoldMT-62" x="33.300781"/>
     <use xlink:href="#TimesNewRomanPS-BoldMT-29" x="88.916016"/>
    </g>
   </g>
   <g id="text_5">
    <!-- $v_1$ -->
    <g style="fill: #ffffff" transform="translate(368.508679 51.897602) scale(0.13 -0.13)">
     <use xlink:href="#STIXGeneral-Italic-76" transform="translate(0 0.90625)"/>
     <use xlink:href="#STIXGeneral-Regular-31" transform="translate(44.399994 -12.321875) scale(0.7)"/>
    </g>
   </g>
   <g id="text_6">
    <!-- $v_2$ -->
    <g style="fill: #ffffff" transform="translate(368.508679 200.46213) scale(0.13 -0.13)">
     <use xlink:href="#STIXGeneral-Italic-76" transform="translate(0 0.90625)"/>
     <use xlink:href="#STIXGeneral-Regular-32" transform="translate(44.399994 -12.321875) scale(0.7)"/>
    </g>
   </g>
  </g>
  <g id="axes_3">
   <g id="patch_20">
    <path d="M 583.685781 64.748349 
Q 604.012333 123.028696 583.850652 181.309082 
L 584.113166 181.399897 
Q 583.834006 181.569612 583.554519 181.738333 
Q 583.440581 181.432395 583.325626 181.127453 
L 583.588139 181.218268 
Q 603.718274 123.029067 583.423498 64.839826 
L 583.685781 64.748349 
z
" clip-path="url(#pe31d0eae4e)" style="fill: #2e86ab; opacity: 0.8; stroke: #2e86ab; stroke-width: 5; stroke-linecap: round"/>
   </g>
   <g id="patch_21">
    <path d="M 611.50288 64.761864 
Q 631.849645 123.100167 611.618248 181.43849 
L 611.803144 181.502611 
Q 611.606836 181.620717 611.410368 181.738333 
Q 611.329661 181.524045 611.248454 181.310247 
L 611.433351 181.374368 
Q 631.642448 123.10035 611.318097 64.826311 
L 611.50288 64.761864 
z
" clip-path="url(#pe31d0eae4e)" style="fill: #2e86ab; opacity: 0.8; stroke: #2e86ab; stroke-width: 3.522593; stroke-linecap: round"/>
   </g>
   <g id="patch_22">
    <path d="M 639.331254 64.771447 
Q 659.692119 123.150177 639.411908 181.528918 
L 639.541796 181.57404 
Q 639.404045 181.656306 639.266218 181.738333 
Q 639.209297 181.588383 639.152132 181.438674 
L 639.28202 181.483796 
Q 659.546525 123.150267 639.201421 64.816728 
L 639.331254 64.771447 
z
" clip-path="url(#pe31d0eae4e)" style="fill: #2e86ab; opacity: 0.8; stroke: #2e86ab; stroke-width: 2.475043; stroke-linecap: round"/>
   </g>
   <g id="patch_23">
    <path d="M 609.945162 181.783726 
Q 589.618611 123.50338 609.780291 65.222993 
L 609.517778 65.132179 
Q 609.796937 64.962463 610.076424 64.793743 
Q 610.190362 65.09968 610.305318 65.404623 
L 610.042804 65.313808 
Q 589.912669 123.503009 610.207445 181.692249 
L 609.945162 181.783726 
z
" clip-path="url(#pe31d0eae4e)" style="fill: #a23b72; opacity: 0.8; stroke: #a23b72; stroke-width: 5; stroke-linecap: round"/>
   </g>
   <g id="patch_24">
    <path d="M 637.905925 181.747136 
Q 617.526103 123.314053 637.87246 64.880968 
L 637.819994 64.862699 
Q 637.876127 64.828201 637.932273 64.793743 
Q 637.954812 64.855644 637.977392 64.917505 
L 637.924926 64.899236 
Q 617.584935 123.314037 637.958381 181.72884 
L 637.905925 181.747136 
z
" clip-path="url(#pe31d0eae4e)" style="fill: #a23b72; opacity: 0.8; stroke: #a23b72; stroke-linecap: round"/>
   </g>
   <g id="patch_25">
    <path d="M 665.69561 181.770212 
Q 645.348845 123.431909 665.580243 65.093586 
L 665.395346 65.029465 
Q 665.591655 64.911359 665.788122 64.793743 
Q 665.86883 65.00803 665.950036 65.221828 
L 665.76514 65.157707 
Q 645.556042 123.431726 665.880394 181.705764 
L 665.69561 181.770212 
z
" clip-path="url(#pe31d0eae4e)" style="fill: #a23b72; opacity: 0.8; stroke: #a23b72; stroke-width: 3.522593; stroke-linecap: round"/>
   </g>
   <g id="patch_26">
    <path d="M 624.671321 65.233019 
C 628.980671 65.233019 633.114102 63.520896 636.161272 60.473725 
C 639.208443 57.426554 640.920566 53.293124 640.920566 48.983774 
C 640.920566 44.674423 639.208443 40.540993 636.161272 37.493822 
C 633.114102 34.446651 628.980671 32.734528 624.671321 32.734528 
C 620.361971 32.734528 616.22854 34.446651 613.181369 37.493822 
C 610.134198 40.540993 608.422075 44.674423 608.422075 48.983774 
C 608.422075 53.293124 610.134198 57.426554 613.181369 60.473725 
C 616.22854 63.520896 620.361971 65.233019 624.671321 65.233019 
z
" clip-path="url(#pe31d0eae4e)" style="fill: #1b4965; stroke: #2c3e50; stroke-width: 2; stroke-linejoin: miter"/>
   </g>
   <g id="patch_27">
    <path d="M 624.671321 213.797547 
C 628.980671 213.797547 633.114102 212.085424 636.161272 209.038253 
C 639.208443 205.991083 640.920566 201.857652 640.920566 197.548302 
C 640.920566 193.238952 639.208443 189.105521 636.161272 186.05835 
C 633.114102 183.01118 628.980671 181.299057 624.671321 181.299057 
C 620.361971 181.299057 616.22854 183.01118 613.181369 186.05835 
C 610.134198 189.105521 608.422075 193.238952 608.422075 197.548302 
C 608.422075 201.857652 610.134198 205.991083 613.181369 209.038253 
C 616.22854 212.085424 620.361971 213.797547 624.671321 213.797547 
z
" clip-path="url(#pe31d0eae4e)" style="fill: #5fa8d3; stroke: #2c3e50; stroke-width: 2; stroke-linejoin: miter"/>
   </g>
   <g id="text_7">
    <!-- (c) -->
    <g transform="translate(618.56718 241.987246) scale(0.11 -0.11)">
     <defs>
      <path id="TimesNewRomanPS-BoldMT-63" d="M 2600 753 
L 2697 678 
Q 2491 291 2183 101 
Q 1875 -88 1528 -88 
Q 944 -88 594 353 
Q 244 794 244 1413 
Q 244 2009 563 2463 
Q 947 3009 1622 3009 
Q 2075 3009 2342 2781 
Q 2609 2553 2609 2272 
Q 2609 2094 2501 1987 
Q 2394 1881 2219 1881 
Q 2034 1881 1914 2003 
Q 1794 2125 1766 2438 
Q 1747 2634 1675 2713 
Q 1603 2791 1506 2791 
Q 1356 2791 1250 2631 
Q 1088 2391 1088 1894 
Q 1088 1481 1219 1104 
Q 1350 728 1578 544 
Q 1750 409 1984 409 
Q 2138 409 2275 481 
Q 2413 553 2600 753 
z
" transform="scale(0.015625)"/>
     </defs>
     <use xlink:href="#TimesNewRomanPS-BoldMT-28"/>
     <use xlink:href="#TimesNewRomanPS-BoldMT-63" x="33.300781"/>
     <use xlink:href="#TimesNewRomanPS-BoldMT-29" x="77.685547"/>
    </g>
   </g>
   <g id="text_8">
    <!-- $v_1$ -->
    <g style="fill: #ffffff" transform="translate(619.211321 51.897602) scale(0.13 -0.13)">
     <use xlink:href="#STIXGeneral-Italic-76" transform="translate(0 0.90625)"/>
     <use xlink:href="#STIXGeneral-Regular-31" transform="translate(44.399994 -12.321875) scale(0.7)"/>
    </g>
   </g>
   <g id="text_9">
    <!-- $v_2$ -->
    <g style="fill: #ffffff" transform="translate(619.211321 200.46213) scale(0.13 -0.13)">
     <use xlink:href="#STIXGeneral-Italic-76" transform="translate(0 0.90625)"/>
     <use xlink:href="#STIXGeneral-Regular-32" transform="translate(44.399994 -12.321875) scale(0.7)"/>
    </g>
   </g>
  </g>
  <g id="axes_4">
   <g id="patch_28">
    <path d="M 834.283509 64.78494 
Q 854.663331 123.218023 834.316974 181.651108 
L 834.36944 181.669376 
Q 834.313307 181.703875 834.257161 181.738333 
Q 834.234622 181.676431 834.212042 181.614571 
L 834.264508 181.632839 
Q 854.604499 123.218038 834.231053 64.803235 
L 834.283509 64.78494 
z
" clip-path="url(#pce691becb1)" style="fill: #2e86ab; opacity: 0.8; stroke: #2e86ab; stroke-linecap: round"/>
   </g>
   <g id="patch_29">
    <path d="M 890.056554 64.763544 
Q 910.405225 123.107313 890.166965 181.4511 
L 890.342217 181.511891 
Q 890.155611 181.625334 889.968859 181.738333 
Q 889.892887 181.533703 889.816461 181.329517 
L 889.991713 181.390309 
Q 910.208828 123.107479 889.881405 64.824631 
L 890.056554 64.763544 
z
" clip-path="url(#pce691becb1)" style="fill: #2e86ab; opacity: 0.8; stroke: #2e86ab; stroke-width: 3.338932; stroke-linecap: round"/>
   </g>
   <g id="patch_30">
    <path d="M 860.647804 181.783726 
Q 840.321252 123.50338 860.482933 65.222993 
L 860.220419 65.132179 
Q 860.499579 64.962463 860.779065 64.793743 
Q 860.893004 65.09968 861.007959 65.404623 
L 860.745446 65.313808 
Q 840.615311 123.503009 860.910087 181.692249 
L 860.647804 181.783726 
z
" clip-path="url(#pce691becb1)" style="fill: #a23b72; opacity: 0.8; stroke: #a23b72; stroke-width: 5; stroke-linecap: round"/>
   </g>
   <g id="patch_31">
    <path d="M 916.403069 181.768532 
Q 896.054397 123.424762 916.292658 65.080975 
L 916.117406 65.020184 
Q 916.304012 64.906741 916.490764 64.793743 
Q 916.566735 64.998373 916.643162 65.202558 
L 916.46791 65.141767 
Q 896.250794 123.424597 916.578218 181.707444 
L 916.403069 181.768532 
z
" clip-path="url(#pce691becb1)" style="fill: #a23b72; opacity: 0.8; stroke: #a23b72; stroke-width: 3.338932; stroke-linecap: round"/>
   </g>
   <g id="patch_32">
    <path d="M 875.373962 65.233019 
C 879.683312 65.233019 883.816743 63.520896 886.863914 60.473725 
C 889.911085 57.426554 891.623208 53.293124 891.623208 48.983774 
C 891.623208 44.674423 889.911085 40.540993 886.863914 37.493822 
C 883.816743 34.446651 879.683312 32.734528 875.373962 32.734528 
C 871.064612 32.734528 866.931181 34.446651 863.884011 37.493822 
C 860.83684 40.540993 859.124717 44.674423 859.124717 48.983774 
C 859.124717 53.293124 860.83684 57.426554 863.884011 60.473725 
C 866.931181 63.520896 871.064612 65.233019 875.373962 65.233019 
z
" clip-path="url(#pce691becb1)" style="fill: #1b4965; stroke: #2c3e50; stroke-width: 2; stroke-linejoin: miter"/>
   </g>
   <g id="patch_33">
    <path d="M 875.373962 213.797547 
C 879.683312 213.797547 883.816743 212.085424 886.863914 209.038253 
C 889.911085 205.991083 891.623208 201.857652 891.623208 197.548302 
C 891.623208 193.238952 889.911085 189.105521 886.863914 186.05835 
C 883.816743 183.01118 879.683312 181.299057 875.373962 181.299057 
C 871.064612 181.299057 866.931181 183.01118 863.884011 186.05835 
C 860.83684 189.105521 859.124717 193.238952 859.124717 197.548302 
C 859.124717 201.857652 860.83684 205.991083 863.884011 209.038253 
C 866.931181 212.085424 871.064612 213.797547 875.373962 213.797547 
z
" clip-path="url(#pce691becb1)" style="fill: #5fa8d3; stroke: #2c3e50; stroke-width: 2; stroke-linejoin: miter"/>
   </g>
   <g id="text_10">
    <!-- (d) -->
    <g transform="translate(868.65279 241.987246) scale(0.11 -0.11)">
     <defs>
      <path id="TimesNewRomanPS-BoldMT-64" d="M 3056 4238 
L 3056 875 
Q 3056 534 3075 472 
Q 3100 369 3170 319 
Q 3241 269 3416 256 
L 3416 153 
L 2181 -88 
L 2181 375 
Q 1959 106 1786 9 
Q 1613 -88 1394 -88 
Q 834 -88 509 413 
Q 247 819 247 1409 
Q 247 1881 409 2254 
Q 572 2628 855 2818 
Q 1138 3009 1463 3009 
Q 1672 3009 1834 2928 
Q 1997 2847 2181 2644 
L 2181 3525 
Q 2181 3859 2153 3928 
Q 2116 4019 2041 4062 
Q 1966 4106 1759 4106 
L 1759 4238 
L 3056 4238 
z
M 2181 2256 
Q 1950 2700 1616 2700 
Q 1500 2700 1425 2638 
Q 1309 2541 1236 2297 
Q 1163 2053 1163 1550 
Q 1163 997 1244 731 
Q 1325 466 1466 347 
Q 1538 288 1663 288 
Q 1938 288 2181 719 
L 2181 2256 
z
" transform="scale(0.015625)"/>
     </defs>
     <use xlink:href="#TimesNewRomanPS-BoldMT-28"/>
     <use xlink:href="#TimesNewRomanPS-BoldMT-64" x="33.300781"/>
     <use xlink:href="#TimesNewRomanPS-BoldMT-29" x="88.916016"/>
    </g>
   </g>
   <g id="text_11">
    <!-- $v_1$ -->
    <g style="fill: #ffffff" transform="translate(869.913962 51.897602) scale(0.13 -0.13)">
     <use xlink:href="#STIXGeneral-Italic-76" transform="translate(0 0.90625)"/>
     <use xlink:href="#STIXGeneral-Regular-31" transform="translate(44.399994 -12.321875) scale(0.7)"/>
    </g>
   </g>
   <g id="text_12">
    <!-- $v_2$ -->
    <g style="fill: #ffffff" transform="translate(869.913962 200.46213) scale(0.13 -0.13)">
     <use xlink:href="#STIXGeneral-Italic-76" transform="translate(0 0.90625)"/>
     <use xlink:href="#STIXGeneral-Regular-32" transform="translate(44.399994 -12.321875) scale(0.7)"/>
    </g>
   </g>
  </g>
 </g>
 <defs>
  <clipPath id="p4c13d63f50">
   <rect x="7.2" y="7.2" width="232.132075" height="232.132075"/>
  </clipPath>
  <clipPath id="pac0ac497e0">
   <rect x="257.902642" y="7.2" width="232.132075" height="232.132075"/>
  </clipPath>
  <clipPath id="pe31d0eae4e">
   <rect x="508.605283" y="7.2" width="232.132075" height="232.132075"/>
  </clipPath>
  <clipPath id="pce691becb1">
   <rect x="759.307925" y="7.2" width="232.132075" height="232.132075"/>
  </clipPath>
 </defs>
</svg>
