<?xml version="1.0" encoding="utf-8" standalone="no"?>
<!DOCTYPE svg PUBLIC "-//W3C//DTD SVG 1.1//EN"
  "http://www.w3.org/Graphics/SVG/1.1/DTD/svg11.dtd">
<svg xmlns:xlink="http://www.w3.org/1999/xlink" width="586.823478pt" height="422.64pt" viewBox="0 0 586.823478 422.64" xmlns="http://www.w3.org/2000/svg" version="1.1">
 <metadata>
  <rdf:RDF xmlns:dc="http://purl.org/dc/elements/1.1/" xmlns:cc="http://creativecommons.org/ns#" xmlns:rdf="http://www.w3.org/1999/02/22-rdf-syntax-ns#">
   <cc:Work>
    <dc:type rdf:resource="http://purl.org/dc/dcmitype/StillImage"/>
    <dc:date>2026-01-29T00:52:54.463635</dc:date>
    <dc:format>image/svg+xml</dc:format>
    <dc:creator>
     <cc:Agent>
      <dc:title>Matplotlib v3.9.4, https://matplotlib.org/</dc:title>
     </cc:Agent>
    </dc:creator>
   </cc:Work>
  </rdf:RDF>
 </metadata>
 <defs>
  <style type="text/css">*{stroke-linejoin: round; stroke-linecap: butt}</style>
 </defs>
 <g id="figure_1">
  <g id="patch_1">
   <path d="M 0 422.64 
L 586.823478 422.64 
L 586.823478 0 
L 0 0 
z
" style="fill: #ffffff"/>
  </g>
  <g id="axes_1">
   <g id="patch_2">
    <path d="M 517.5 379.94087 
L 535.249565 379.94087 
L 535.249565 373.5954 
L 517.5 373.5954 
z
" clip-path="url(#p3068f9a82e)" style="fill: #e8f4f8"/>
   </g>
   <g id="patch_3">
    <path d="M 517.5 374.172261 
L 535.249565 374.172261 
L 535.249565 367.826791 
L 517.5 367.826791 
z
" clip-path="url(#p3068f9a82e)" style="fill: #e8f4f8"/>
   </g>
   <g id="patch_4">
    <path d="M 517.5 368.403652 
L 535.249565 368.403652 
L 535.249565 362.058183 
L 517.5 362.058183 
z
" clip-path="url(#p3068f9a82e)" style="fill: #e8f4f8"/>
   </g>
   <g id="patch_5">
    <path d="M 517.5 362.635043 
L 535.249565 362.635043 
L 535.249565 356.289574 
L 517.5 356.289574 
z
" clip-path="url(#p3068f9a82e)" style="fill: #e8f4f8"/>
   </g>
   <g id="patch_6">
    <path d="M 517.5 356.866435 
L 535.249565 356.866435 
L 535.249565 350.520965 
L 517.5 350.520965 
z
" clip-path="url(#p3068f9a82e)" style="fill: #e8f4f8"/>
   </g>
   <g id="patch_7">
    <path d="M 517.5 351.097826 
L 535.249565 351.097826 
L 535.249565 344.752357 
L 517.5 344.752357 
z
" clip-path="url(#p3068f9a82e)" style="fill: #e8f4f8"/>
   </g>
   <g id="patch_8">
    <path d="M 517.5 345.329217 
L 535.249565 345.329217 
L 535.249565 338.983748 
L 517.5 338.983748 
z
" clip-path="url(#p3068f9a82e)" style="fill: #e8f4f8"/>
   </g>
   <g id="patch_9">
    <path d="M 517.5 339.560609 
L 535.249565 339.560609 
L 535.249565 333.215139 
L 517.5 333.215139 
z
" clip-path="url(#p3068f9a82e)" style="fill: #e8f4f8"/>
   </g>
   <g id="patch_10">
    <path d="M 517.5 333.792 
L 535.249565 333.792 
L 535.249565 327.44653 
L 517.5 327.44653 
z
" clip-path="url(#p3068f9a82e)" style="fill: #e8f4f8"/>
   </g>
   <g id="patch_11">
    <path d="M 517.5 328.023391 
L 535.249565 328.023391 
L 535.249565 321.677922 
L 517.5 321.677922 
z
" clip-path="url(#p3068f9a82e)" style="fill: #e8f4f8"/>
   </g>
   <g id="patch_12">
    <path d="M 517.5 322.254783 
L 535.249565 322.254783 
L 535.249565 315.909313 
L 517.5 315.909313 
z
" clip-path="url(#p3068f9a82e)" style="fill: #e8f4f8"/>
   </g>
   <g id="patch_13">
    <path d="M 517.5 316.486174 
L 535.249565 316.486174 
L 535.249565 310.140704 
L 517.5 310.140704 
z
" clip-path="url(#p3068f9a82e)" style="fill: #e8f4f8"/>
   </g>
   <g id="patch_14">
    <path d="M 517.5 310.717565 
L 535.249565 310.717565 
L 535.249565 304.372096 
L 517.5 304.372096 
z
" clip-path="url(#p3068f9a82e)" style="fill: #e8f4f8"/>
   </g>
   <g id="patch_15">
    <path d="M 517.5 304.948957 
L 535.249565 304.948957 
L 535.249565 298.603487 
L 517.5 298.603487 
z
" clip-path="url(#p3068f9a82e)" style="fill: #b8d4e3"/>
   </g>
   <g id="patch_16">
    <path d="M 517.5 299.180348 
L 535.249565 299.180348 
L 535.249565 292.834878 
L 517.5 292.834878 
z
" clip-path="url(#p3068f9a82e)" style="fill: #b8d4e3"/>
   </g>
   <g id="patch_17">
    <path d="M 517.5 293.411739 
L 535.249565 293.411739 
L 535.249565 287.06627 
L 517.5 287.06627 
z
" clip-path="url(#p3068f9a82e)" style="fill: #b8d4e3"/>
   </g>
   <g id="patch_18">
    <path d="M 517.5 287.64313 
L 535.249565 287.64313 
L 535.249565 281.297661 
L 517.5 281.297661 
z
" clip-path="url(#p3068f9a82e)" style="fill: #b8d4e3"/>
   </g>
   <g id="patch_19">
    <path d="M 517.5 281.874522 
L 535.249565 281.874522 
L 535.249565 275.529052 
L 517.5 275.529052 
z
" clip-path="url(#p3068f9a82e)" style="fill: #b8d4e3"/>
   </g>
   <g id="patch_20">
    <path d="M 517.5 276.105913 
L 535.249565 276.105913 
L 535.249565 269.760443 
L 517.5 269.760443 
z
" clip-path="url(#p3068f9a82e)" style="fill: #b8d4e3"/>
   </g>
   <g id="patch_21">
    <path d="M 517.5 270.337304 
L 535.249565 270.337304 
L 535.249565 263.991835 
L 517.5 263.991835 
z
" clip-path="url(#p3068f9a82e)" style="fill: #b8d4e3"/>
   </g>
   <g id="patch_22">
    <path d="M 517.5 264.568696 
L 535.249565 264.568696 
L 535.249565 258.223226 
L 517.5 258.223226 
z
" clip-path="url(#p3068f9a82e)" style="fill: #b8d4e3"/>
   </g>
   <g id="patch_23">
    <path d="M 517.5 258.800087 
L 535.249565 258.800087 
L 535.249565 252.454617 
L 517.5 252.454617 
z
" clip-path="url(#p3068f9a82e)" style="fill: #b8d4e3"/>
   </g>
   <g id="patch_24">
    <path d="M 517.5 253.031478 
L 535.249565 253.031478 
L 535.249565 246.686009 
L 517.5 246.686009 
z
" clip-path="url(#p3068f9a82e)" style="fill: #b8d4e3"/>
   </g>
   <g id="patch_25">
    <path d="M 517.5 247.26287 
L 535.249565 247.26287 
L 535.249565 240.9174 
L 517.5 240.9174 
z
" clip-path="url(#p3068f9a82e)" style="fill: #7eb5cf"/>
   </g>
   <g id="patch_26">
    <path d="M 517.5 241.494261 
L 535.249565 241.494261 
L 535.249565 235.148791 
L 517.5 235.148791 
z
" clip-path="url(#p3068f9a82e)" style="fill: #7eb5cf"/>
   </g>
   <g id="patch_27">
    <path d="M 517.5 235.725652 
L 535.249565 235.725652 
L 535.249565 229.380183 
L 517.5 229.380183 
z
" clip-path="url(#p3068f9a82e)" style="fill: #7eb5cf"/>
   </g>
   <g id="patch_28">
    <path d="M 517.5 229.957043 
L 535.249565 229.957043 
L 535.249565 223.611574 
L 517.5 223.611574 
z
" clip-path="url(#p3068f9a82e)" style="fill: #7eb5cf"/>
   </g>
   <g id="patch_29">
    <path d="M 517.5 224.188435 
L 535.249565 224.188435 
L 535.249565 217.842965 
L 517.5 217.842965 
z
" clip-path="url(#p3068f9a82e)" style="fill: #7eb5cf"/>
   </g>
   <g id="patch_30">
    <path d="M 517.5 218.419826 
L 535.249565 218.419826 
L 535.249565 212.074357 
L 517.5 212.074357 
z
" clip-path="url(#p3068f9a82e)" style="fill: #7eb5cf"/>
   </g>
   <g id="patch_31">
    <path d="M 517.5 212.651217 
L 535.249565 212.651217 
L 535.249565 206.305748 
L 517.5 206.305748 
z
" clip-path="url(#p3068f9a82e)" style="fill: #7eb5cf"/>
   </g>
   <g id="patch_32">
    <path d="M 517.5 206.882609 
L 535.249565 206.882609 
L 535.249565 200.537139 
L 517.5 200.537139 
z
" clip-path="url(#p3068f9a82e)" style="fill: #7eb5cf"/>
   </g>
   <g id="patch_33">
    <path d="M 517.5 201.114 
L 535.249565 201.114 
L 535.249565 194.76853 
L 517.5 194.76853 
z
" clip-path="url(#p3068f9a82e)" style="fill: #7eb5cf"/>
   </g>
   <g id="patch_34">
    <path d="M 517.5 195.345391 
L 535.249565 195.345391 
L 535.249565 188.999922 
L 517.5 188.999922 
z
" clip-path="url(#p3068f9a82e)" style="fill: #7eb5cf"/>
   </g>
   <g id="patch_35">
    <path d="M 517.5 189.576783 
L 535.249565 189.576783 
L 535.249565 183.231313 
L 517.5 183.231313 
z
" clip-path="url(#p3068f9a82e)" style="fill: #4a96b8"/>
   </g>
   <g id="patch_36">
    <path d="M 517.5 183.808174 
L 535.249565 183.808174 
L 535.249565 177.462704 
L 517.5 177.462704 
z
" clip-path="url(#p3068f9a82e)" style="fill: #4a96b8"/>
   </g>
   <g id="patch_37">
    <path d="M 517.5 178.039565 
L 535.249565 178.039565 
L 535.249565 171.694096 
L 517.5 171.694096 
z
" clip-path="url(#p3068f9a82e)" style="fill: #4a96b8"/>
   </g>
   <g id="patch_38">
    <path d="M 517.5 172.270957 
L 535.249565 172.270957 
L 535.249565 165.925487 
L 517.5 165.925487 
z
" clip-path="url(#p3068f9a82e)" style="fill: #4a96b8"/>
   </g>
   <g id="patch_39">
    <path d="M 517.5 166.502348 
L 535.249565 166.502348 
L 535.249565 160.156878 
L 517.5 160.156878 
z
" clip-path="url(#p3068f9a82e)" style="fill: #4a96b8"/>
   </g>
   <g id="patch_40">
    <path d="M 517.5 160.733739 
L 535.249565 160.733739 
L 535.249565 154.38827 
L 517.5 154.38827 
z
" clip-path="url(#p3068f9a82e)" style="fill: #4a96b8"/>
   </g>
   <g id="patch_41">
    <path d="M 517.5 154.96513 
L 535.249565 154.96513 
L 535.249565 148.619661 
L 517.5 148.619661 
z
" clip-path="url(#p3068f9a82e)" style="fill: #4a96b8"/>
   </g>
   <g id="patch_42">
    <path d="M 517.5 149.196522 
L 535.249565 149.196522 
L 535.249565 142.851052 
L 517.5 142.851052 
z
" clip-path="url(#p3068f9a82e)" style="fill: #4a96b8"/>
   </g>
   <g id="patch_43">
    <path d="M 517.5 143.427913 
L 535.249565 143.427913 
L 535.249565 137.082443 
L 517.5 137.082443 
z
" clip-path="url(#p3068f9a82e)" style="fill: #4a96b8"/>
   </g>
   <g id="patch_44">
    <path d="M 517.5 137.659304 
L 535.249565 137.659304 
L 535.249565 131.313835 
L 517.5 131.313835 
z
" clip-path="url(#p3068f9a82e)" style="fill: #4a96b8"/>
   </g>
   <g id="patch_45">
    <path d="M 517.5 131.890696 
L 535.249565 131.890696 
L 535.249565 125.545226 
L 517.5 125.545226 
z
" clip-path="url(#p3068f9a82e)" style="fill: #1b4965"/>
   </g>
   <g id="patch_46">
    <path d="M 517.5 126.122087 
L 535.249565 126.122087 
L 535.249565 119.776617 
L 517.5 119.776617 
z
" clip-path="url(#p3068f9a82e)" style="fill: #1b4965"/>
   </g>
   <g id="patch_47">
    <path d="M 517.5 120.353478 
L 535.249565 120.353478 
L 535.249565 114.008009 
L 517.5 114.008009 
z
" clip-path="url(#p3068f9a82e)" style="fill: #1b4965"/>
   </g>
   <g id="patch_48">
    <path d="M 517.5 114.58487 
L 535.249565 114.58487 
L 535.249565 108.2394 
L 517.5 108.2394 
z
" clip-path="url(#p3068f9a82e)" style="fill: #1b4965"/>
   </g>
   <g id="patch_49">
    <path d="M 517.5 108.816261 
L 535.249565 108.816261 
L 535.249565 102.470791 
L 517.5 102.470791 
z
" clip-path="url(#p3068f9a82e)" style="fill: #1b4965"/>
   </g>
   <g id="patch_50">
    <path d="M 517.5 103.047652 
L 535.249565 103.047652 
L 535.249565 96.702183 
L 517.5 96.702183 
z
" clip-path="url(#p3068f9a82e)" style="fill: #1b4965"/>
   </g>
   <g id="patch_51">
    <path d="M 517.5 97.279043 
L 535.249565 97.279043 
L 535.249565 90.933574 
L 517.5 90.933574 
z
" clip-path="url(#p3068f9a82e)" style="fill: #1b4965"/>
   </g>
   <g id="patch_52">
    <path d="M 517.5 379.94087 
L 535.249565 379.94087 
L 535.249565 91.510435 
L 517.5 91.510435 
L 517.5 379.94087 
z
" clip-path="url(#p3068f9a82e)" style="fill: none; stroke: #cccccc; stroke-linejoin: miter"/>
   </g>
   <g id="patch_53">
    <path d="M 117.247304 155.40887 
L 190.020522 155.40887 
Q 195.345391 155.40887 195.345391 150.084 
L 195.345391 95.060348 
Q 195.345391 89.735478 190.020522 89.735478 
L 117.247304 89.735478 
Q 111.922435 89.735478 111.922435 95.060348 
L 111.922435 150.084 
Q 111.922435 155.40887 117.247304 155.40887 
z
" clip-path="url(#p3068f9a82e)" style="fill: #e8f4f8; stroke: #cccccc; stroke-linejoin: miter"/>
   </g>
   <g id="patch_54">
    <path d="M 210.432522 155.40887 
L 283.205739 155.40887 
Q 288.530609 155.40887 288.530609 150.084 
L 288.530609 95.060348 
Q 288.530609 89.735478 283.205739 89.735478 
L 210.432522 89.735478 
Q 205.107652 89.735478 205.107652 95.060348 
L 205.107652 150.084 
Q 205.107652 155.40887 210.432522 155.40887 
z
" clip-path="url(#p3068f9a82e)" style="fill: #1b4965; stroke: #cccccc; stroke-linejoin: miter"/>
   </g>
   <g id="patch_55">
    <path d="M 303.617739 155.40887 
L 376.390957 155.40887 
Q 381.715826 155.40887 381.715826 150.084 
L 381.715826 95.060348 
Q 381.715826 89.735478 376.390957 89.735478 
L 303.617739 89.735478 
Q 298.29287 89.735478 298.29287 95.060348 
L 298.29287 150.084 
Q 298.29287 155.40887 303.617739 155.40887 
z
" clip-path="url(#p3068f9a82e)" style="fill: #e8f4f8; stroke: #cccccc; stroke-linejoin: miter"/>
   </g>
   <g id="patch_56">
    <path d="M 396.802957 155.40887 
L 469.576174 155.40887 
Q 474.901043 155.40887 474.901043 150.084 
L 474.901043 95.060348 
Q 474.901043 89.735478 469.576174 89.735478 
L 396.802957 89.735478 
Q 391.478087 89.735478 391.478087 95.060348 
L 391.478087 150.084 
Q 391.478087 155.40887 396.802957 155.40887 
z
" clip-path="url(#p3068f9a82e)" style="fill: #1b4965; stroke: #cccccc; stroke-linejoin: miter"/>
   </g>
   <g id="patch_57">
    <path d="M 117.247304 230.844522 
L 190.020522 230.844522 
Q 195.345391 230.844522 195.345391 225.519652 
L 195.345391 170.496 
Q 195.345391 165.17113 190.020522 165.17113 
L 117.247304 165.17113 
Q 111.922435 165.17113 111.922435 170.496 
L 111.922435 225.519652 
Q 111.922435 230.844522 117.247304 230.844522 
z
" clip-path="url(#p3068f9a82e)" style="fill: #e8f4f8; stroke: #cccccc; stroke-linejoin: miter"/>
   </g>
   <g id="patch_58">
    <path d="M 210.432522 230.844522 
L 283.205739 230.844522 
Q 288.530609 230.844522 288.530609 225.519652 
L 288.530609 170.496 
Q 288.530609 165.17113 283.205739 165.17113 
L 210.432522 165.17113 
Q 205.107652 165.17113 205.107652 170.496 
L 205.107652 225.519652 
Q 205.107652 230.844522 210.432522 230.844522 
z
" clip-path="url(#p3068f9a82e)" style="fill: #e8f4f8; stroke: #cccccc; stroke-linejoin: miter"/>
   </g>
   <g id="patch_59">
    <path d="M 303.617739 230.844522 
L 376.390957 230.844522 
Q 381.715826 230.844522 381.715826 225.519652 
L 381.715826 170.496 
Q 381.715826 165.17113 376.390957 165.17113 
L 303.617739 165.17113 
Q 298.29287 165.17113 298.29287 170.496 
L 298.29287 225.519652 
Q 298.29287 230.844522 303.617739 230.844522 
z
" clip-path="url(#p3068f9a82e)" style="fill: #e8f4f8; stroke: #cccccc; stroke-linejoin: miter"/>
   </g>
   <g id="patch_60">
    <path d="M 396.802957 230.844522 
L 469.576174 230.844522 
Q 474.901043 230.844522 474.901043 225.519652 
L 474.901043 170.496 
Q 474.901043 165.17113 469.576174 165.17113 
L 396.802957 165.17113 
Q 391.478087 165.17113 391.478087 170.496 
L 391.478087 225.519652 
Q 391.478087 230.844522 396.802957 230.844522 
z
" clip-path="url(#p3068f9a82e)" style="fill: #1b4965; stroke: #cccccc; stroke-linejoin: miter"/>
   </g>
   <g id="patch_61">
    <path d="M 117.247304 306.280174 
L 190.020522 306.280174 
Q 195.345391 306.280174 195.345391 300.955304 
L 195.345391 245.931652 
Q 195.345391 240.606783 190.020522 240.606783 
L 117.247304 240.606783 
Q 111.922435 240.606783 111.922435 245.931652 
L 111.922435 300.955304 
Q 111.922435 306.280174 117.247304 306.280174 
z
" clip-path="url(#p3068f9a82e)" style="fill: #e8f4f8; stroke: #cccccc; stroke-linejoin: miter"/>
   </g>
   <g id="patch_62">
    <path d="M 210.432522 306.280174 
L 283.205739 306.280174 
Q 288.530609 306.280174 288.530609 300.955304 
L 288.530609 245.931652 
Q 288.530609 240.606783 283.205739 240.606783 
L 210.432522 240.606783 
Q 205.107652 240.606783 205.107652 245.931652 
L 205.107652 300.955304 
Q 205.107652 306.280174 210.432522 306.280174 
z
" clip-path="url(#p3068f9a82e)" style="fill: #1b4965; stroke: #cccccc; stroke-linejoin: miter"/>
   </g>
   <g id="patch_63">
    <path d="M 303.617739 306.280174 
L 376.390957 306.280174 
Q 381.715826 306.280174 381.715826 300.955304 
L 381.715826 245.931652 
Q 381.715826 240.606783 376.390957 240.606783 
L 303.617739 240.606783 
Q 298.29287 240.606783 298.29287 245.931652 
L 298.29287 300.955304 
Q 298.29287 306.280174 303.617739 306.280174 
z
" clip-path="url(#p3068f9a82e)" style="fill: #e8f4f8; stroke: #cccccc; stroke-linejoin: miter"/>
   </g>
   <g id="patch_64">
    <path d="M 396.802957 306.280174 
L 469.576174 306.280174 
Q 474.901043 306.280174 474.901043 300.955304 
L 474.901043 245.931652 
Q 474.901043 240.606783 469.576174 240.606783 
L 396.802957 240.606783 
Q 391.478087 240.606783 391.478087 245.931652 
L 391.478087 300.955304 
Q 391.478087 306.280174 396.802957 306.280174 
z
" clip-path="url(#p3068f9a82e)" style="fill: #1b4965; stroke: #cccccc; stroke-linejoin: miter"/>
   </g>
   <g id="patch_65">
    <path d="M 117.247304 381.715826 
L 190.020522 381.715826 
Q 195.345391 381.715826 195.345391 376.390957 
L 195.345391 321.367304 
Q 195.345391 316.042435 190.020522 316.042435 
L 117.247304 316.042435 
Q 111.922435 316.042435 111.922435 321.367304 
L 111.922435 376.390957 
Q 111.922435 381.715826 117.247304 381.715826 
z
" clip-path="url(#p3068f9a82e)" style="fill: #e8f4f8; stroke: #cccccc; stroke-linejoin: miter"/>
   </g>
   <g id="patch_66">
    <path d="M 210.432522 381.715826 
L 283.205739 381.715826 
Q 288.530609 381.715826 288.530609 376.390957 
L 288.530609 321.367304 
Q 288.530609 316.042435 283.205739 316.042435 
L 210.432522 316.042435 
Q 205.107652 316.042435 205.107652 321.367304 
L 205.107652 376.390957 
Q 205.107652 381.715826 210.432522 381.715826 
z
" clip-path="url(#p3068f9a82e)" style="fill: #1b4965; stroke: #cccccc; stroke-linejoin: miter"/>
   </g>
   <g id="patch_67">
    <path d="M 303.617739 381.715826 
L 376.390957 381.715826 
Q 381.715826 381.715826 381.715826 376.390957 
L 381.715826 321.367304 
Q 381.715826 316.042435 376.390957 316.042435 
L 303.617739 316.042435 
Q 298.29287 316.042435 298.29287 321.367304 
L 298.29287 376.390957 
Q 298.29287 381.715826 303.617739 381.715826 
z
" clip-path="url(#p3068f9a82e)" style="fill: #e8f4f8; stroke: #cccccc; stroke-linejoin: miter"/>
   </g>
   <g id="patch_68">
    <path d="M 396.802957 381.715826 
L 469.576174 381.715826 
Q 474.901043 381.715826 474.901043 376.390957 
L 474.901043 321.367304 
Q 474.901043 316.042435 469.576174 316.042435 
L 396.802957 316.042435 
Q 391.478087 316.042435 391.478087 321.367304 
L 391.478087 376.390957 
Q 391.478087 381.715826 396.802957 381.715826 
z
" clip-path="url(#p3068f9a82e)" style="fill: #1b4965; stroke: #cccccc; stroke-linejoin: miter"/>
   </g>
   <g id="text_1">
    <!-- NL -->
    <g style="fill: #2c3e50" transform="translate(145.99321 68.745466) scale(0.11 -0.11)">
     <defs>
      <path id="TimesNewRomanPS-BoldMT-4e" d="M 1594 4238 
L 3684 1609 
L 3684 3431 
Q 3684 3813 3575 3947 
Q 3425 4128 3072 4122 
L 3072 4238 
L 4472 4238 
L 4472 4122 
Q 4203 4088 4111 4033 
Q 4019 3978 3967 3854 
Q 3916 3731 3916 3431 
L 3916 -97 
L 3809 -97 
L 944 3431 
L 944 738 
Q 944 372 1111 244 
Q 1278 116 1494 116 
L 1594 116 
L 1594 0 
L 91 0 
L 91 116 
Q 441 119 578 259 
Q 716 400 716 738 
L 716 3728 
L 625 3841 
Q 491 4009 387 4062 
Q 284 4116 91 4122 
L 91 4238 
L 1594 4238 
z
" transform="scale(0.015625)"/>
      <path id="TimesNewRomanPS-BoldMT-4c" d="M 4041 1488 
L 3881 0 
L 119 0 
L 119 116 
L 259 116 
Q 444 116 556 181 
Q 638 225 681 331 
Q 716 406 716 725 
L 716 3513 
Q 716 3838 681 3919 
Q 647 4000 542 4061 
Q 438 4122 259 4122 
L 119 4122 
L 119 4238 
L 2378 4238 
L 2378 4122 
L 2194 4122 
Q 2009 4122 1897 4056 
Q 1816 4013 1769 3906 
Q 1734 3831 1734 3513 
L 1734 813 
Q 1734 488 1771 398 
Q 1809 309 1919 266 
Q 1997 238 2297 238 
L 2650 238 
Q 2988 238 3213 356 
Q 3438 475 3602 731 
Q 3766 988 3913 1488 
L 4041 1488 
z
" transform="scale(0.015625)"/>
     </defs>
     <use xlink:href="#TimesNewRomanPS-BoldMT-4e"/>
     <use xlink:href="#TimesNewRomanPS-BoldMT-4c" x="72.216797"/>
    </g>
   </g>
   <g id="text_2">
    <!-- PC -->
    <g style="fill: #2c3e50" transform="translate(239.487802 68.745466) scale(0.11 -0.11)">
     <defs>
      <path id="TimesNewRomanPS-BoldMT-50" d="M 1728 1919 
L 1728 744 
Q 1728 400 1770 311 
Q 1813 222 1920 169 
Q 2028 116 2316 116 
L 2316 0 
L 163 0 
L 163 116 
Q 456 116 561 170 
Q 666 225 708 312 
Q 750 400 750 744 
L 750 3494 
Q 750 3838 708 3927 
Q 666 4016 559 4069 
Q 453 4122 163 4122 
L 163 4238 
L 2009 4238 
Q 2922 4238 3319 3913 
Q 3716 3588 3716 3100 
Q 3716 2688 3459 2394 
Q 3203 2100 2753 1994 
Q 2450 1919 1728 1919 
z
M 1728 3994 
L 1728 2163 
Q 1831 2156 1884 2156 
Q 2266 2156 2472 2382 
Q 2678 2609 2678 3084 
Q 2678 3556 2472 3775 
Q 2266 3994 1856 3994 
L 1728 3994 
z
" transform="scale(0.015625)"/>
      <path id="TimesNewRomanPS-BoldMT-43" d="M 4272 4334 
L 4272 2866 
L 4150 2866 
Q 4013 3441 3638 3747 
Q 3263 4053 2788 4053 
Q 2391 4053 2059 3825 
Q 1728 3597 1575 3228 
Q 1378 2756 1378 2178 
Q 1378 1609 1522 1142 
Q 1666 675 1972 436 
Q 2278 197 2766 197 
Q 3166 197 3498 372 
Q 3831 547 4200 975 
L 4200 609 
Q 3844 238 3458 70 
Q 3072 -97 2556 -97 
Q 1878 -97 1351 175 
Q 825 447 539 956 
Q 253 1466 253 2041 
Q 253 2647 570 3190 
Q 888 3734 1427 4034 
Q 1966 4334 2572 4334 
Q 3019 4334 3516 4141 
Q 3803 4028 3881 4028 
Q 3981 4028 4054 4101 
Q 4128 4175 4150 4334 
L 4272 4334 
z
" transform="scale(0.015625)"/>
     </defs>
     <use xlink:href="#TimesNewRomanPS-BoldMT-50"/>
     <use xlink:href="#TimesNewRomanPS-BoldMT-43" x="61.083984"/>
    </g>
   </g>
   <g id="text_3">
    <!-- AN -->
    <g style="fill: #2c3e50" transform="translate(332.060285 68.745466) scale(0.11 -0.11)">
     <defs>
      <path id="TimesNewRomanPS-BoldMT-41" d="M 2663 1206 
L 1166 1206 
L 988 794 
Q 900 588 900 453 
Q 900 275 1044 191 
Q 1128 141 1459 116 
L 1459 0 
L 50 0 
L 50 116 
Q 278 150 425 304 
Q 572 459 788 944 
L 2303 4325 
L 2363 4325 
L 3891 850 
Q 4109 356 4250 228 
Q 4356 131 4550 116 
L 4550 0 
L 2500 0 
L 2500 116 
L 2584 116 
Q 2831 116 2931 184 
Q 3000 234 3000 328 
Q 3000 384 2981 444 
Q 2975 472 2888 678 
L 2663 1206 
z
M 2556 1438 
L 1925 2897 
L 1275 1438 
L 2556 1438 
z
" transform="scale(0.015625)"/>
     </defs>
     <use xlink:href="#TimesNewRomanPS-BoldMT-41"/>
     <use xlink:href="#TimesNewRomanPS-BoldMT-4e" x="72.216797"/>
    </g>
   </g>
   <g id="text_4">
    <!-- GM -->
    <g style="fill: #2c3e50" transform="translate(423.720112 68.745466) scale(0.11 -0.11)">
     <defs>
      <path id="TimesNewRomanPS-BoldMT-47" d="M 4416 4334 
L 4416 2841 
L 4300 2841 
Q 4091 3453 3672 3772 
Q 3253 4091 2756 4091 
Q 2281 4091 1965 3823 
Q 1650 3556 1519 3078 
Q 1388 2600 1388 2097 
Q 1388 1488 1531 1028 
Q 1675 569 1995 353 
Q 2316 138 2756 138 
Q 2909 138 3070 170 
Q 3231 203 3400 266 
L 3400 1147 
Q 3400 1397 3365 1470 
Q 3331 1544 3223 1603 
Q 3116 1663 2963 1663 
L 2853 1663 
L 2853 1778 
L 4913 1778 
L 4913 1663 
Q 4678 1647 4586 1598 
Q 4494 1550 4444 1438 
Q 4416 1378 4416 1147 
L 4416 266 
Q 4009 84 3570 -8 
Q 3131 -100 2659 -100 
Q 2056 -100 1657 64 
Q 1259 228 954 495 
Q 650 763 478 1097 
Q 259 1528 259 2063 
Q 259 3019 931 3678 
Q 1603 4338 2622 4338 
Q 2938 4338 3191 4288 
Q 3328 4263 3636 4145 
Q 3944 4028 4000 4028 
Q 4088 4028 4163 4092 
Q 4238 4156 4300 4334 
L 4416 4334 
z
" transform="scale(0.015625)"/>
      <path id="TimesNewRomanPS-BoldMT-4d" d="M 3050 1444 
L 4200 4238 
L 5925 4238 
L 5925 4122 
L 5788 4122 
Q 5600 4122 5488 4056 
Q 5409 4013 5363 3909 
Q 5328 3834 5328 3519 
L 5328 725 
Q 5328 400 5362 319 
Q 5397 238 5503 177 
Q 5609 116 5788 116 
L 5925 116 
L 5925 0 
L 3713 0 
L 3713 116 
L 3850 116 
Q 4038 116 4150 181 
Q 4228 225 4275 331 
Q 4309 406 4309 725 
L 4309 3866 
L 2684 0 
L 2609 0 
L 959 3838 
L 959 853 
Q 959 541 975 469 
Q 1016 313 1152 214 
Q 1288 116 1578 116 
L 1578 0 
L 128 0 
L 128 116 
L 172 116 
Q 313 113 434 161 
Q 556 209 618 290 
Q 681 372 716 519 
Q 722 553 722 838 
L 722 3519 
Q 722 3841 687 3920 
Q 653 4000 547 4061 
Q 441 4122 263 4122 
L 128 4122 
L 128 4238 
L 1859 4238 
L 3050 1444 
z
" transform="scale(0.015625)"/>
     </defs>
     <use xlink:href="#TimesNewRomanPS-BoldMT-47"/>
     <use xlink:href="#TimesNewRomanPS-BoldMT-4d" x="77.783203"/>
    </g>
   </g>
   <g id="text_5">
    <!-- Dir. -->
    <g style="fill: #2c3e50" transform="translate(85.418433 125.037721) scale(0.11 -0.11)">
     <defs>
      <path id="TimesNewRomanPS-BoldMT-44" d="M 84 0 
L 84 116 
L 225 116 
Q 409 116 507 173 
Q 606 231 653 331 
Q 681 397 681 725 
L 681 3513 
Q 681 3838 647 3919 
Q 613 4000 508 4061 
Q 403 4122 225 4122 
L 84 4122 
L 84 4238 
L 1981 4238 
Q 2741 4238 3203 4031 
Q 3769 3778 4061 3265 
Q 4353 2753 4353 2106 
Q 4353 1659 4209 1282 
Q 4066 906 3837 661 
Q 3609 416 3311 267 
Q 3013 119 2581 38 
Q 2391 0 1981 0 
L 84 0 
z
M 1700 3997 
L 1700 691 
Q 1700 428 1725 368 
Q 1750 309 1809 278 
Q 1894 231 2053 231 
Q 2575 231 2850 588 
Q 3225 1069 3225 2081 
Q 3225 2897 2969 3384 
Q 2766 3766 2447 3903 
Q 2222 4000 1700 3997 
z
" transform="scale(0.015625)"/>
      <path id="TimesNewRomanPS-BoldMT-69" d="M 919 4338 
Q 1122 4338 1262 4195 
Q 1403 4053 1403 3853 
Q 1403 3653 1261 3512 
Q 1119 3372 919 3372 
Q 719 3372 578 3512 
Q 438 3653 438 3853 
Q 438 4053 578 4195 
Q 719 4338 919 4338 
z
M 1356 2922 
L 1356 606 
Q 1356 297 1428 211 
Q 1500 125 1709 113 
L 1709 0 
L 131 0 
L 131 113 
Q 325 119 419 225 
Q 481 297 481 606 
L 481 2313 
Q 481 2622 409 2708 
Q 338 2794 131 2806 
L 131 2922 
L 1356 2922 
z
" transform="scale(0.015625)"/>
      <path id="TimesNewRomanPS-BoldMT-72" d="M 1428 2922 
L 1428 2259 
Q 1719 2713 1937 2861 
Q 2156 3009 2359 3009 
Q 2534 3009 2639 2901 
Q 2744 2794 2744 2597 
Q 2744 2388 2642 2272 
Q 2541 2156 2397 2156 
Q 2231 2156 2109 2262 
Q 1988 2369 1966 2381 
Q 1934 2400 1894 2400 
Q 1803 2400 1722 2331 
Q 1594 2225 1528 2028 
Q 1428 1725 1428 1359 
L 1428 688 
L 1431 513 
Q 1431 334 1453 284 
Q 1491 200 1564 161 
Q 1638 122 1813 113 
L 1813 0 
L 234 0 
L 234 113 
Q 425 128 492 217 
Q 559 306 559 688 
L 559 2303 
Q 559 2553 534 2622 
Q 503 2709 443 2750 
Q 384 2791 234 2806 
L 234 2922 
L 1428 2922 
z
" transform="scale(0.015625)"/>
      <path id="TimesNewRomanPS-BoldMT-2e" d="M 800 963 
Q 1019 963 1170 809 
Q 1322 656 1322 441 
Q 1322 225 1169 73 
Q 1016 -78 800 -78 
Q 584 -78 432 73 
Q 281 225 281 441 
Q 281 656 432 809 
Q 584 963 800 963 
z
" transform="scale(0.015625)"/>
     </defs>
     <use xlink:href="#TimesNewRomanPS-BoldMT-44"/>
     <use xlink:href="#TimesNewRomanPS-BoldMT-69" x="72.216797"/>
     <use xlink:href="#TimesNewRomanPS-BoldMT-72" x="100"/>
     <use xlink:href="#TimesNewRomanPS-BoldMT-2e" x="135.259766"/>
    </g>
   </g>
   <g id="text_6">
    <!-- Size -->
    <g style="fill: #2c3e50" transform="translate(84.108746 200.473373) scale(0.11 -0.11)">
     <defs>
      <path id="TimesNewRomanPS-BoldMT-53" d="M 3006 4334 
L 3041 2922 
L 2913 2922 
Q 2822 3453 2467 3776 
Q 2113 4100 1700 4100 
Q 1381 4100 1195 3929 
Q 1009 3759 1009 3538 
Q 1009 3397 1075 3288 
Q 1166 3141 1366 2997 
Q 1513 2894 2044 2631 
Q 2788 2266 3047 1941 
Q 3303 1616 3303 1197 
Q 3303 666 2889 283 
Q 2475 -100 1838 -100 
Q 1638 -100 1459 -59 
Q 1281 -19 1013 94 
Q 863 156 766 156 
Q 684 156 593 93 
Q 503 31 447 -97 
L 331 -97 
L 331 1503 
L 447 1503 
Q 584 828 976 473 
Q 1369 119 1822 119 
Q 2172 119 2380 309 
Q 2588 500 2588 753 
Q 2588 903 2508 1043 
Q 2428 1184 2265 1311 
Q 2103 1438 1691 1641 
Q 1113 1925 859 2125 
Q 606 2325 470 2572 
Q 334 2819 334 3116 
Q 334 3622 706 3978 
Q 1078 4334 1644 4334 
Q 1850 4334 2044 4284 
Q 2191 4247 2402 4145 
Q 2613 4044 2697 4044 
Q 2778 4044 2825 4094 
Q 2872 4144 2913 4334 
L 3006 4334 
z
" transform="scale(0.015625)"/>
      <path id="TimesNewRomanPS-BoldMT-7a" d="M 2609 0 
L 66 0 
L 66 69 
L 1672 2731 
L 1203 2731 
Q 900 2731 769 2676 
Q 638 2622 556 2501 
Q 475 2381 388 2072 
L 278 2072 
L 278 2922 
L 2738 2922 
L 2738 2838 
L 1144 200 
L 1344 200 
Q 1944 200 2209 372 
Q 2475 544 2609 1000 
L 2697 1000 
L 2609 0 
z
" transform="scale(0.015625)"/>
      <path id="TimesNewRomanPS-BoldMT-65" d="M 2691 1566 
L 1088 1566 
Q 1116 984 1397 647 
Q 1613 388 1916 388 
Q 2103 388 2256 492 
Q 2409 597 2584 869 
L 2691 800 
Q 2453 316 2165 114 
Q 1878 -88 1500 -88 
Q 850 -88 516 413 
Q 247 816 247 1413 
Q 247 2144 642 2576 
Q 1038 3009 1569 3009 
Q 2013 3009 2339 2645 
Q 2666 2281 2691 1566 
z
M 1922 1775 
Q 1922 2278 1867 2465 
Q 1813 2653 1697 2750 
Q 1631 2806 1522 2806 
Q 1359 2806 1256 2647 
Q 1072 2369 1072 1884 
L 1072 1775 
L 1922 1775 
z
" transform="scale(0.015625)"/>
     </defs>
     <use xlink:href="#TimesNewRomanPS-BoldMT-53"/>
     <use xlink:href="#TimesNewRomanPS-BoldMT-69" x="55.615234"/>
     <use xlink:href="#TimesNewRomanPS-BoldMT-7a" x="83.398438"/>
     <use xlink:href="#TimesNewRomanPS-BoldMT-65" x="127.783203"/>
    </g>
   </g>
   <g id="text_7">
    <!-- Temp. -->
    <g style="fill: #2c3e50" transform="translate(73.801402 275.909025) scale(0.11 -0.11)">
     <defs>
      <path id="TimesNewRomanPS-BoldMT-54" d="M 4038 4238 
L 4038 3091 
L 3925 3091 
Q 3825 3488 3703 3661 
Q 3581 3834 3369 3938 
Q 3250 3994 2953 3994 
L 2638 3994 
L 2638 725 
Q 2638 400 2673 319 
Q 2709 238 2814 177 
Q 2919 116 3100 116 
L 3241 116 
L 3241 0 
L 1022 0 
L 1022 116 
L 1163 116 
Q 1347 116 1459 181 
Q 1541 225 1588 331 
Q 1622 406 1622 725 
L 1622 3994 
L 1316 3994 
Q 888 3994 694 3813 
Q 422 3559 350 3091 
L 231 3091 
L 231 4238 
L 4038 4238 
z
" transform="scale(0.015625)"/>
      <path id="TimesNewRomanPS-BoldMT-6d" d="M 1428 2922 
L 1428 2538 
Q 1669 2800 1873 2904 
Q 2078 3009 2322 3009 
Q 2603 3009 2793 2878 
Q 2984 2747 3088 2478 
Q 3338 2759 3567 2884 
Q 3797 3009 4047 3009 
Q 4350 3009 4529 2870 
Q 4709 2731 4779 2517 
Q 4850 2303 4850 1834 
L 4850 638 
Q 4850 300 4911 219 
Q 4972 138 5166 113 
L 5166 0 
L 3656 0 
L 3656 113 
Q 3834 128 3919 250 
Q 3975 334 3975 638 
L 3975 1894 
Q 3975 2284 3944 2390 
Q 3913 2497 3845 2548 
Q 3778 2600 3688 2600 
Q 3553 2600 3415 2501 
Q 3278 2403 3138 2206 
L 3138 638 
Q 3138 322 3191 241 
Q 3263 125 3466 113 
L 3466 0 
L 1953 0 
L 1953 113 
Q 2075 119 2145 173 
Q 2216 228 2239 304 
Q 2263 381 2263 638 
L 2263 1894 
Q 2263 2291 2231 2391 
Q 2200 2491 2126 2547 
Q 2053 2603 1969 2603 
Q 1844 2603 1741 2538 
Q 1594 2441 1428 2206 
L 1428 638 
Q 1428 328 1489 229 
Q 1550 131 1744 113 
L 1744 0 
L 238 0 
L 238 113 
Q 422 131 500 231 
Q 553 300 553 638 
L 553 2288 
Q 553 2619 492 2700 
Q 431 2781 238 2806 
L 238 2922 
L 1428 2922 
z
" transform="scale(0.015625)"/>
      <path id="TimesNewRomanPS-BoldMT-70" d="M 1347 297 
L 1347 -791 
Q 1347 -1016 1383 -1097 
Q 1419 -1178 1494 -1215 
Q 1569 -1253 1788 -1253 
L 1788 -1369 
L 122 -1369 
L 122 -1253 
Q 316 -1247 409 -1144 
Q 472 -1072 472 -772 
L 472 2313 
Q 472 2622 400 2708 
Q 328 2794 122 2806 
L 122 2922 
L 1347 2922 
L 1347 2538 
Q 1500 2763 1659 2863 
Q 1888 3009 2156 3009 
Q 2478 3009 2742 2806 
Q 3006 2603 3143 2245 
Q 3281 1888 3281 1475 
Q 3281 1031 3139 664 
Q 2997 297 2726 104 
Q 2456 -88 2125 -88 
Q 1884 -88 1675 19 
Q 1519 100 1347 297 
z
M 1347 613 
Q 1616 231 1922 231 
Q 2091 231 2200 409 
Q 2363 672 2363 1409 
Q 2363 2166 2184 2444 
Q 2066 2628 1866 2628 
Q 1550 2628 1347 2172 
L 1347 613 
z
" transform="scale(0.015625)"/>
     </defs>
     <use xlink:href="#TimesNewRomanPS-BoldMT-54"/>
     <use xlink:href="#TimesNewRomanPS-BoldMT-65" x="57.574219"/>
     <use xlink:href="#TimesNewRomanPS-BoldMT-6d" x="101.958984"/>
     <use xlink:href="#TimesNewRomanPS-BoldMT-70" x="185.259766"/>
     <use xlink:href="#TimesNewRomanPS-BoldMT-2e" x="240.875"/>
    </g>
   </g>
   <g id="text_8">
    <!-- Round -->
    <g style="fill: #2c3e50" transform="translate(71.252496 351.344677) scale(0.11 -0.11)">
     <defs>
      <path id="TimesNewRomanPS-BoldMT-52" d="M 1700 1931 
L 1700 744 
Q 1700 400 1742 311 
Q 1784 222 1890 169 
Q 1997 116 2288 116 
L 2288 0 
L 119 0 
L 119 116 
Q 413 116 517 170 
Q 622 225 664 312 
Q 706 400 706 744 
L 706 3494 
Q 706 3838 664 3927 
Q 622 4016 515 4069 
Q 409 4122 119 4122 
L 119 4238 
L 2088 4238 
Q 2856 4238 3212 4131 
Q 3569 4025 3794 3739 
Q 4019 3453 4019 3069 
Q 4019 2600 3681 2294 
Q 3466 2100 3078 2003 
L 4097 569 
Q 4297 291 4381 222 
Q 4509 125 4678 116 
L 4678 0 
L 3344 0 
L 1978 1931 
L 1700 1931 
z
M 1700 4009 
L 1700 2153 
L 1878 2153 
Q 2313 2153 2528 2233 
Q 2744 2313 2867 2520 
Q 2991 2728 2991 3063 
Q 2991 3547 2764 3778 
Q 2538 4009 2034 4009 
L 1700 4009 
z
" transform="scale(0.015625)"/>
      <path id="TimesNewRomanPS-BoldMT-6f" d="M 1594 3009 
Q 1975 3009 2303 2812 
Q 2631 2616 2801 2253 
Q 2972 1891 2972 1459 
Q 2972 838 2656 419 
Q 2275 -88 1603 -88 
Q 944 -88 587 375 
Q 231 838 231 1447 
Q 231 2075 595 2542 
Q 959 3009 1594 3009 
z
M 1606 2788 
Q 1447 2788 1333 2667 
Q 1219 2547 1183 2192 
Q 1147 1838 1147 1206 
Q 1147 872 1191 581 
Q 1225 359 1337 243 
Q 1450 128 1594 128 
Q 1734 128 1828 206 
Q 1950 313 1991 503 
Q 2053 800 2053 1703 
Q 2053 2234 1993 2432 
Q 1934 2631 1819 2722 
Q 1738 2788 1606 2788 
z
" transform="scale(0.015625)"/>
      <path id="TimesNewRomanPS-BoldMT-75" d="M 3038 2922 
L 3038 634 
Q 3038 300 3100 217 
Q 3163 134 3353 113 
L 3353 0 
L 2163 0 
L 2163 391 
Q 1953 141 1743 26 
Q 1534 -88 1275 -88 
Q 1028 -88 836 64 
Q 644 216 578 419 
Q 513 622 513 1128 
L 513 2288 
Q 513 2619 452 2700 
Q 391 2781 197 2806 
L 197 2922 
L 1388 2922 
L 1388 925 
Q 1388 613 1417 522 
Q 1447 431 1511 384 
Q 1575 338 1659 338 
Q 1772 338 1863 397 
Q 1988 478 2163 725 
L 2163 2288 
Q 2163 2619 2102 2700 
Q 2041 2781 1847 2806 
L 1847 2922 
L 3038 2922 
z
" transform="scale(0.015625)"/>
      <path id="TimesNewRomanPS-BoldMT-6e" d="M 1409 2922 
L 1409 2544 
Q 1634 2788 1840 2898 
Q 2047 3009 2284 3009 
Q 2569 3009 2756 2851 
Q 2944 2694 3006 2459 
Q 3056 2281 3056 1775 
L 3056 638 
Q 3056 300 3117 217 
Q 3178 134 3372 113 
L 3372 0 
L 1894 0 
L 1894 113 
Q 2059 134 2131 250 
Q 2181 328 2181 638 
L 2181 1938 
Q 2181 2297 2153 2390 
Q 2125 2484 2058 2536 
Q 1991 2588 1909 2588 
Q 1641 2588 1409 2203 
L 1409 638 
Q 1409 309 1470 221 
Q 1531 134 1697 113 
L 1697 0 
L 219 0 
L 219 113 
Q 403 131 481 231 
Q 534 300 534 638 
L 534 2288 
Q 534 2619 473 2700 
Q 413 2781 219 2806 
L 219 2922 
L 1409 2922 
z
" transform="scale(0.015625)"/>
      <path id="TimesNewRomanPS-BoldMT-64" d="M 3056 4238 
L 3056 875 
Q 3056 534 3075 472 
Q 3100 369 3170 319 
Q 3241 269 3416 256 
L 3416 153 
L 2181 -88 
L 2181 375 
Q 1959 106 1786 9 
Q 1613 -88 1394 -88 
Q 834 -88 509 413 
Q 247 819 247 1409 
Q 247 1881 409 2254 
Q 572 2628 855 2818 
Q 1138 3009 1463 3009 
Q 1672 3009 1834 2928 
Q 1997 2847 2181 2644 
L 2181 3525 
Q 2181 3859 2153 3928 
Q 2116 4019 2041 4062 
Q 1966 4106 1759 4106 
L 1759 4238 
L 3056 4238 
z
M 2181 2256 
Q 1950 2700 1616 2700 
Q 1500 2700 1425 2638 
Q 1309 2541 1236 2297 
Q 1163 2053 1163 1550 
Q 1163 997 1244 731 
Q 1325 466 1466 347 
Q 1538 288 1663 288 
Q 1938 288 2181 719 
L 2181 2256 
z
" transform="scale(0.015625)"/>
     </defs>
     <use xlink:href="#TimesNewRomanPS-BoldMT-52"/>
     <use xlink:href="#TimesNewRomanPS-BoldMT-6f" x="72.216797"/>
     <use xlink:href="#TimesNewRomanPS-BoldMT-75" x="122.216797"/>
     <use xlink:href="#TimesNewRomanPS-BoldMT-6e" x="177.832031"/>
     <use xlink:href="#TimesNewRomanPS-BoldMT-64" x="233.447266"/>
    </g>
   </g>
   <g id="text_9">
    <!-- 0 -->
    <g style="fill: #666666" transform="translate(542.349391 382.102979) scale(0.09 -0.09)">
     <defs>
      <path id="TimesNewRomanPSMT-30" d="M 231 2094 
Q 231 2819 450 3342 
Q 669 3866 1031 4122 
Q 1313 4325 1613 4325 
Q 2100 4325 2488 3828 
Q 2972 3213 2972 2159 
Q 2972 1422 2759 906 
Q 2547 391 2217 158 
Q 1888 -75 1581 -75 
Q 975 -75 572 641 
Q 231 1244 231 2094 
z
M 844 2016 
Q 844 1141 1059 588 
Q 1238 122 1591 122 
Q 1759 122 1940 273 
Q 2122 425 2216 781 
Q 2359 1319 2359 2297 
Q 2359 3022 2209 3506 
Q 2097 3866 1919 4016 
Q 1791 4119 1609 4119 
Q 1397 4119 1231 3928 
Q 1006 3669 925 3112 
Q 844 2556 844 2016 
z
" transform="scale(0.015625)"/>
     </defs>
     <use xlink:href="#TimesNewRomanPSMT-30"/>
    </g>
   </g>
   <g id="text_10">
    <!-- 1 -->
    <g style="fill: #666666" transform="translate(542.349391 93.672544) scale(0.09 -0.09)">
     <defs>
      <path id="TimesNewRomanPSMT-31" d="M 750 3822 
L 1781 4325 
L 1884 4325 
L 1884 747 
Q 1884 391 1914 303 
Q 1944 216 2037 169 
Q 2131 122 2419 116 
L 2419 0 
L 825 0 
L 825 116 
Q 1125 122 1212 167 
Q 1300 213 1334 289 
Q 1369 366 1369 747 
L 1369 3034 
Q 1369 3497 1338 3628 
Q 1316 3728 1258 3775 
Q 1200 3822 1119 3822 
Q 1003 3822 797 3725 
L 750 3822 
z
" transform="scale(0.015625)"/>
     </defs>
     <use xlink:href="#TimesNewRomanPSMT-31"/>
    </g>
   </g>
  </g>
 </g>
 <defs>
  <clipPath id="p3068f9a82e">
   <rect x="7.2" y="7.2" width="572.423478" height="408.24"/>
  </clipPath>
 </defs>
</svg>
