<?xml version="1.0" encoding="utf-8" standalone="no"?>
<!DOCTYPE svg PUBLIC "-//W3C//DTD SVG 1.1//EN"
  "http://www.w3.org/Graphics/SVG/1.1/DTD/svg11.dtd">
<svg xmlns:xlink="http://www.w3.org/1999/xlink" width="619.837087pt" height="486.792771pt" viewBox="0 0 619.837087 486.792771" xmlns="http://www.w3.org/2000/svg" version="1.1">
 <metadata>
  <rdf:RDF xmlns:dc="http://purl.org/dc/elements/1.1/" xmlns:cc="http://creativecommons.org/ns#" xmlns:rdf="http://www.w3.org/1999/02/22-rdf-syntax-ns#">
   <cc:Work>
    <dc:type rdf:resource="http://purl.org/dc/dcmitype/StillImage"/>
    <dc:date>2026-01-29T00:52:54.085713</dc:date>
    <dc:format>image/svg+xml</dc:format>
    <dc:creator>
     <cc:Agent>
      <dc:title>Matplotlib v3.9.4, https://matplotlib.org/</dc:title>
     </cc:Agent>
    </dc:creator>
   </cc:Work>
  </rdf:RDF>
 </metadata>
 <defs>
  <style type="text/css">*{stroke-linejoin: round; stroke-linecap: butt}</style>
 </defs>
 <g id="figure_1">
  <g id="patch_1">
   <path d="M 0 486.792771 
L 619.837087 486.792771 
L 619.837087 0 
L 0 0 
z
" style="fill: #ffffff"/>
  </g>
  <g id="axes_1">
   <g id="patch_2">
    <path d="M 447.849 243.396386 
C 447.849 214.463637 442.149879 185.812224 431.077796 159.08185 
C 420.005713 132.351476 403.77599 108.06198 383.317448 87.603438 
C 362.858906 67.144895 338.56941 50.915173 311.839036 39.843089 
C 285.108662 28.771006 256.457248 23.071886 227.5245 23.071886 
C 198.591752 23.071886 169.940338 28.771006 143.209964 39.843089 
C 116.47959 50.915173 92.190094 67.144895 71.731552 87.603438 
C 51.27301 108.06198 35.043287 132.351476 23.971204 159.08185 
C 12.899121 185.812224 7.2 214.463637 7.2 243.396386 
C 7.2 272.329134 12.899121 300.980548 23.971204 327.710921 
C 35.043287 354.441295 51.27301 378.730791 71.731552 399.189334 
C 92.190094 419.647876 116.47959 435.877598 143.209964 446.949682 
C 169.940338 458.021765 198.591752 463.720886 227.5245 463.720886 
C 256.457248 463.720886 285.108662 458.021765 311.839036 446.949682 
C 338.56941 435.877598 362.858906 419.647876 383.317448 399.189334 
C 403.77599 378.730791 420.005713 354.441295 431.077796 327.710921 
C 442.149879 300.980548 447.849 272.329134 447.849 243.396386 
M 227.5245 243.396386 
C 227.5245 243.396386 227.5245 243.396386 227.5245 243.396386 
C 227.5245 243.396386 227.5245 243.396386 227.5245 243.396386 
C 227.5245 243.396386 227.5245 243.396386 227.5245 243.396386 
C 227.5245 243.396386 227.5245 243.396386 227.5245 243.396386 
C 227.5245 243.396386 227.5245 243.396386 227.5245 243.396386 
C 227.5245 243.396386 227.5245 243.396386 227.5245 243.396386 
C 227.5245 243.396386 227.5245 243.396386 227.5245 243.396386 
C 227.5245 243.396386 227.5245 243.396386 227.5245 243.396386 
C 227.5245 243.396386 227.5245 243.396386 227.5245 243.396386 
C 227.5245 243.396386 227.5245 243.396386 227.5245 243.396386 
C 227.5245 243.396386 227.5245 243.396386 227.5245 243.396386 
C 227.5245 243.396386 227.5245 243.396386 227.5245 243.396386 
C 227.5245 243.396386 227.5245 243.396386 227.5245 243.396386 
C 227.5245 243.396386 227.5245 243.396386 227.5245 243.396386 
C 227.5245 243.396386 227.5245 243.396386 227.5245 243.396386 
C 227.5245 243.396386 227.5245 243.396386 227.5245 243.396386 
z
" style="fill: #fafafa"/>
   </g>
   <g id="patch_3">
    <path d="M 227.5245 243.396386 
L 274.210682 99.711093 
L 198.001309 221.946532 
L 145.383364 303.075414 
L 254.445756 326.251491 
z
" clip-path="url(#p71882f8f67)" style="fill: #2e86ab; opacity: 0.06; stroke: #2e86ab; stroke-linejoin: miter"/>
   </g>
   <g id="patch_4">
    <path d="M 437.357357 243.396386 
L 241.789722 199.492546 
L 227.5245 243.396386 
L 57.766153 366.733044 
L 292.366419 442.959292 
z
" clip-path="url(#p71882f8f67)" style="fill: #e07a5f; opacity: 0.06; stroke: #e07a5f; stroke-linejoin: miter"/>
   </g>
   <g id="patch_5">
    <path d="M 227.5245 243.396386 
L 230.118177 235.413869 
L 181.974434 210.302326 
L 124.84808 317.995171 
L 229.994616 250.998622 
z
" clip-path="url(#p71882f8f67)" style="fill: #9b59b6; opacity: 0.06; stroke: #9b59b6; stroke-linejoin: miter"/>
   </g>
   <g id="patch_6">
    <path d="M 227.5245 243.396386 
L 227.5245 243.396386 
L 85.813184 140.437088 
L 227.5245 243.396386 
L 229.994616 250.998622 
z
" clip-path="url(#p71882f8f67)" style="fill: #6c757d; opacity: 0.06; stroke: #6c757d; stroke-linejoin: miter"/>
   </g>
   <g id="matplotlib.axis_1">
    <g id="xtick_1">
     <g id="line2d_1">
      <path d="M 227.5245 243.396386 
L 447.849 243.396386 
" clip-path="url(#p71882f8f67)" style="fill: none; stroke: #e8e8e8; stroke-opacity: 0.25; stroke-width: 0.8; stroke-linecap: square"/>
     </g>
     <g id="text_1">
      <!-- |E| -->
      <g transform="translate(463.704937 246.164823) scale(0.12 -0.12)">
       <defs>
        <path id="TimesNewRomanPS-BoldMT-7c" d="M 497 -1381 
L 497 4334 
L 903 4334 
L 903 -1381 
L 497 -1381 
z
" transform="scale(0.015625)"/>
        <path id="TimesNewRomanPS-BoldMT-45" d="M 1744 3994 
L 1744 2269 
L 1828 2269 
Q 2231 2269 2412 2522 
Q 2594 2775 2644 3269 
L 2763 3269 
L 2763 1050 
L 2644 1050 
Q 2606 1413 2486 1644 
Q 2366 1875 2206 1954 
Q 2047 2034 1744 2034 
L 1744 841 
Q 1744 491 1773 412 
Q 1803 334 1884 284 
Q 1966 234 2147 234 
L 2400 234 
Q 2994 234 3351 509 
Q 3709 784 3866 1347 
L 3981 1347 
L 3791 0 
L 128 0 
L 128 116 
L 269 116 
Q 453 116 566 181 
Q 647 225 691 331 
Q 725 406 725 725 
L 725 3513 
Q 725 3800 709 3866 
Q 678 3975 594 4034 
Q 475 4122 269 4122 
L 128 4122 
L 128 4238 
L 3675 4238 
L 3675 2984 
L 3556 2984 
Q 3466 3444 3302 3644 
Q 3138 3844 2838 3938 
Q 2663 3994 2181 3994 
L 1744 3994 
z
" transform="scale(0.015625)"/>
       </defs>
       <use xlink:href="#TimesNewRomanPS-BoldMT-7c"/>
       <use xlink:href="#TimesNewRomanPS-BoldMT-45" x="22.021484"/>
       <use xlink:href="#TimesNewRomanPS-BoldMT-7c" x="88.720703"/>
      </g>
     </g>
    </g>
    <g id="xtick_2">
     <g id="line2d_2">
      <path d="M 227.5245 243.396386 
L 295.608515 33.855334 
" clip-path="url(#p71882f8f67)" style="fill: none; stroke: #e8e8e8; stroke-opacity: 0.25; stroke-width: 0.8; stroke-linecap: square"/>
     </g>
     <g id="text_2">
      <!-- W -->
      <g transform="translate(296.561397 15.14625) scale(0.12 -0.12)">
       <defs>
        <path id="TimesNewRomanPS-BoldMT-57" d="M 6344 4238 
L 6344 4122 
Q 6225 4113 6144 4056 
Q 6063 4000 6000 3884 
Q 5981 3847 5803 3400 
L 4475 -97 
L 4353 -97 
L 3303 2634 
L 2147 -97 
L 2031 -97 
L 638 3363 
Q 425 3884 340 3993 
Q 256 4103 56 4122 
L 56 4238 
L 1894 4238 
L 1894 4122 
Q 1672 4116 1598 4055 
Q 1525 3994 1525 3903 
Q 1525 3784 1678 3400 
L 2509 1344 
L 3175 2950 
L 3000 3400 
Q 2856 3769 2778 3892 
Q 2700 4016 2598 4069 
Q 2497 4122 2300 4122 
L 2300 4238 
L 4353 4238 
L 4353 4122 
Q 4138 4119 4044 4088 
Q 3978 4066 3940 4014 
Q 3903 3963 3903 3897 
Q 3903 3825 4044 3456 
L 4816 1450 
L 5506 3266 
Q 5616 3547 5641 3650 
Q 5666 3753 5666 3841 
Q 5666 3969 5578 4042 
Q 5491 4116 5244 4122 
L 5244 4238 
L 6344 4238 
z
" transform="scale(0.015625)"/>
       </defs>
       <use xlink:href="#TimesNewRomanPS-BoldMT-57"/>
      </g>
     </g>
    </g>
    <g id="xtick_3">
     <g id="line2d_3">
      <path d="M 227.5245 243.396386 
L 49.278235 113.892894 
" clip-path="url(#p71882f8f67)" style="fill: none; stroke: #e8e8e8; stroke-opacity: 0.25; stroke-width: 0.8; stroke-linecap: square"/>
     </g>
     <g id="text_3">
      <!-- $\beta$ -->
      <g transform="translate(28.015353 103.440851) scale(0.12 -0.12)">
       <defs>
        <path id="STIXGeneral-Italic-3b2" d="M -58 -813 
L 819 2355 
Q 902 2662 995 2908 
Q 1088 3155 1235 3433 
Q 1382 3712 1555 3901 
Q 1728 4090 1977 4214 
Q 2227 4339 2515 4339 
Q 2816 4339 3053 4182 
Q 3290 4026 3290 3693 
Q 3290 3328 3037 3001 
Q 2784 2675 2470 2534 
L 2470 2528 
Q 2682 2509 2858 2320 
Q 3034 2131 3034 1818 
Q 3034 1376 2694 873 
Q 2355 371 1901 122 
Q 1562 -70 1107 -70 
Q 922 -70 685 38 
L 442 -813 
Q 352 -1126 243 -1312 
L -256 -1312 
Q -154 -1158 -58 -813 
z
M 1491 3053 
L 762 288 
Q 762 186 848 118 
Q 934 51 1069 51 
Q 1594 51 2029 704 
Q 2464 1357 2464 2029 
Q 2464 2406 2208 2406 
Q 2150 2406 2044 2380 
Q 1939 2355 1888 2355 
Q 1805 2355 1750 2396 
Q 1696 2438 1696 2496 
Q 1696 2650 1978 2650 
Q 1997 2650 2099 2630 
Q 2202 2611 2253 2611 
Q 2451 2611 2640 2969 
Q 2829 3328 2829 3622 
Q 2829 3962 2713 4083 
Q 2598 4205 2400 4205 
Q 2080 4205 1846 3865 
Q 1613 3526 1491 3053 
z
" transform="scale(0.015625)"/>
       </defs>
       <use xlink:href="#STIXGeneral-Italic-3b2" transform="translate(0 0.203125)"/>
      </g>
     </g>
    </g>
    <g id="xtick_4">
     <g id="line2d_4">
      <path d="M 227.5245 243.396386 
L 49.278235 372.899877 
" clip-path="url(#p71882f8f67)" style="fill: none; stroke: #e8e8e8; stroke-opacity: 0.25; stroke-width: 0.8; stroke-linecap: square"/>
     </g>
     <g id="text_4">
      <!-- $G_w$ -->
      <g transform="translate(23.635353 388.814733) scale(0.12 -0.12)">
       <defs>
        <path id="STIXGeneral-Italic-47" d="M 4621 2042 
L 4621 1939 
Q 4307 1920 4188 1833 
Q 4070 1747 4000 1478 
L 3686 282 
Q 2976 -115 2170 -115 
Q 1293 -115 806 371 
Q 582 595 457 934 
Q 333 1274 333 1606 
Q 333 2266 653 2848 
Q 973 3430 1504 3802 
Q 2170 4262 2912 4262 
Q 3373 4262 3770 4109 
Q 3936 4045 4051 4045 
Q 4282 4045 4435 4262 
L 4531 4230 
L 4218 2970 
L 4102 2989 
Q 4083 3398 3866 3667 
Q 3558 4045 2963 4045 
Q 2214 4045 1715 3411 
Q 1395 3008 1216 2496 
Q 1037 1984 1037 1459 
Q 1037 826 1376 474 
Q 1715 122 2330 122 
Q 2784 122 3002 339 
Q 3059 397 3104 509 
Q 3149 621 3251 986 
Q 3418 1542 3418 1709 
Q 3418 1894 3117 1920 
L 2912 1939 
L 2912 2042 
L 4621 2042 
z
" transform="scale(0.015625)"/>
        <path id="STIXGeneral-Italic-77" d="M 2579 2726 
L 2784 474 
Q 3418 1261 3629 1597 
Q 3840 1933 3840 2138 
Q 3840 2227 3699 2362 
Q 3565 2490 3565 2624 
Q 3565 2701 3638 2761 
Q 3712 2822 3814 2822 
Q 3955 2822 4051 2720 
Q 4147 2618 4147 2464 
Q 4147 1882 2790 230 
L 2733 160 
Q 2509 -115 2445 -115 
Q 2394 -115 2374 109 
L 2189 2093 
L 1619 1120 
Q 1472 877 1267 486 
Q 954 -115 858 -115 
Q 813 -115 800 -57 
Q 787 0 774 186 
L 749 768 
Q 698 1818 576 2317 
Q 531 2490 476 2538 
Q 422 2586 275 2586 
L 96 2586 
L 96 2669 
Q 602 2752 704 2778 
Q 736 2784 777 2797 
Q 819 2810 844 2816 
Q 870 2822 890 2822 
Q 941 2822 960 2790 
Q 979 2758 1011 2605 
Q 1171 1837 1216 806 
L 2445 2752 
Q 2483 2816 2528 2816 
Q 2579 2816 2579 2726 
z
" transform="scale(0.015625)"/>
       </defs>
       <use xlink:href="#STIXGeneral-Italic-47" transform="translate(0 0.40625)"/>
       <use xlink:href="#STIXGeneral-Italic-77" transform="translate(72.199982 -12.821875) scale(0.7)"/>
      </g>
     </g>
    </g>
    <g id="xtick_5">
     <g id="line2d_5">
      <path d="M 227.5245 243.396386 
L 295.608515 452.937437 
" clip-path="url(#p71882f8f67)" style="fill: none; stroke: #e8e8e8; stroke-opacity: 0.25; stroke-width: 0.8; stroke-linecap: square"/>
     </g>
     <g id="text_5">
      <!-- H -->
      <g transform="translate(297.894522 477.025896) scale(0.12 -0.12)">
       <defs>
        <path id="TimesNewRomanPS-BoldMT-48" d="M 1750 2038 
L 1750 725 
Q 1750 400 1786 319 
Q 1822 238 1926 177 
Q 2031 116 2209 116 
L 2350 116 
L 2350 0 
L 134 0 
L 134 116 
L 275 116 
Q 459 116 572 181 
Q 653 225 697 331 
Q 731 406 731 725 
L 731 3513 
Q 731 3838 697 3919 
Q 663 4000 558 4061 
Q 453 4122 275 4122 
L 134 4122 
L 134 4238 
L 2350 4238 
L 2350 4122 
L 2209 4122 
Q 2025 4122 1913 4056 
Q 1831 4013 1784 3906 
Q 1750 3831 1750 3513 
L 1750 2313 
L 3247 2313 
L 3247 3513 
Q 3247 3838 3212 3919 
Q 3178 4000 3072 4061 
Q 2966 4122 2788 4122 
L 2650 4122 
L 2650 4238 
L 4863 4238 
L 4863 4122 
L 4725 4122 
Q 4538 4122 4428 4056 
Q 4347 4013 4300 3906 
Q 4266 3831 4266 3513 
L 4266 725 
Q 4266 400 4300 319 
Q 4334 238 4440 177 
Q 4547 116 4725 116 
L 4863 116 
L 4863 0 
L 2650 0 
L 2650 116 
L 2788 116 
Q 2975 116 3084 181 
Q 3166 225 3213 331 
Q 3247 406 3247 725 
L 3247 2038 
L 1750 2038 
z
" transform="scale(0.015625)"/>
       </defs>
       <use xlink:href="#TimesNewRomanPS-BoldMT-48"/>
      </g>
     </g>
    </g>
   </g>
   <g id="matplotlib.axis_2">
    <g id="ytick_1">
     <g id="line2d_6">
      <path d="M 279.982714 243.396386 
C 279.982714 236.507636 278.625781 229.685871 275.98957 223.321496 
C 273.35336 216.957121 269.489141 211.173908 264.618059 206.302826 
C 259.746978 201.431745 253.963764 197.567525 247.599389 194.931315 
C 241.235015 192.295105 234.41325 190.938171 227.5245 190.938171 
C 220.63575 190.938171 213.813985 192.295105 207.449611 194.931315 
C 201.085236 197.567525 195.302022 201.431745 190.430941 206.302826 
C 185.559859 211.173908 181.69564 216.957121 179.05943 223.321496 
C 176.423219 229.685871 175.066286 236.507636 175.066286 243.396386 
C 175.066286 250.285135 176.423219 257.1069 179.05943 263.471275 
C 181.69564 269.83565 185.559859 275.618863 190.430941 280.489945 
C 195.302022 285.361026 201.085236 289.225246 207.449611 291.861456 
C 213.813985 294.497666 220.63575 295.8546 227.5245 295.8546 
C 234.41325 295.8546 241.235015 294.497666 247.599389 291.861456 
C 253.963764 289.225246 259.746978 285.361026 264.618059 280.489945 
C 269.489141 275.618863 273.35336 269.83565 275.98957 263.471275 
C 278.625781 257.1069 279.982714 250.285135 279.982714 243.396386 
" clip-path="url(#p71882f8f67)" style="fill: none; stroke: #e8e8e8; stroke-opacity: 0.25; stroke-width: 0.8; stroke-linecap: square"/>
     </g>
    </g>
    <g id="ytick_2">
     <g id="line2d_7">
      <path d="M 332.440929 243.396386 
C 332.440929 229.618886 329.727062 215.975356 324.454641 203.246607 
C 319.18222 190.517857 311.453781 178.951431 301.711618 169.209267 
C 291.969455 159.467104 280.403028 151.738665 267.674279 146.466245 
C 254.94553 141.193824 241.301999 138.479957 227.5245 138.479957 
C 213.747001 138.479957 200.10347 141.193824 187.374721 146.466245 
C 174.645972 151.738665 163.079545 159.467104 153.337382 169.209267 
C 143.595219 178.951431 135.86678 190.517857 130.594359 203.246607 
C 125.321938 215.975356 122.608071 229.618886 122.608071 243.396386 
C 122.608071 257.173885 125.321938 270.817415 130.594359 283.546165 
C 135.86678 296.274914 143.595219 307.841341 153.337382 317.583504 
C 163.079545 327.325667 174.645972 335.054106 187.374721 340.326527 
C 200.10347 345.598947 213.747001 348.312814 227.5245 348.312814 
C 241.301999 348.312814 254.94553 345.598947 267.674279 340.326527 
C 280.403028 335.054106 291.969455 327.325667 301.711618 317.583504 
C 311.453781 307.841341 319.18222 296.274914 324.454641 283.546165 
C 329.727062 270.817415 332.440929 257.173885 332.440929 243.396386 
" clip-path="url(#p71882f8f67)" style="fill: none; stroke: #e8e8e8; stroke-opacity: 0.25; stroke-width: 0.8; stroke-linecap: square"/>
     </g>
    </g>
    <g id="ytick_3">
     <g id="line2d_8">
      <path d="M 384.899143 243.396386 
C 384.899143 222.730137 380.828342 202.264841 372.919711 183.171717 
C 365.01108 164.078593 353.418422 146.728953 338.805177 132.115708 
C 324.191933 117.502464 306.842293 105.909805 287.749168 98.001174 
C 268.656044 90.092543 248.190749 86.021743 227.5245 86.021743 
C 206.858251 86.021743 186.392956 90.092543 167.299832 98.001174 
C 148.206707 105.909805 130.857067 117.502464 116.243823 132.115708 
C 101.630578 146.728953 90.03792 164.078593 82.129289 183.171717 
C 74.220658 202.264841 70.149857 222.730137 70.149857 243.396386 
C 70.149857 264.062634 74.220658 284.52793 82.129289 303.621054 
C 90.03792 322.714178 101.630578 340.063818 116.243823 354.677063 
C 130.857067 369.290307 148.206707 380.882966 167.299832 388.791597 
C 186.392956 396.700228 206.858251 400.771028 227.5245 400.771028 
C 248.190749 400.771028 268.656044 396.700228 287.749168 388.791597 
C 306.842293 380.882966 324.191933 369.290307 338.805177 354.677063 
C 353.418422 340.063818 365.01108 322.714178 372.919711 303.621054 
C 380.828342 284.52793 384.899143 264.062634 384.899143 243.396386 
" clip-path="url(#p71882f8f67)" style="fill: none; stroke: #e8e8e8; stroke-opacity: 0.25; stroke-width: 0.8; stroke-linecap: square"/>
     </g>
    </g>
    <g id="ytick_4">
     <g id="line2d_9">
      <path d="M 437.357357 243.396386 
C 437.357357 215.841387 431.929623 188.554327 421.384782 163.096828 
C 410.839941 137.639329 395.383062 114.506476 375.898736 95.022149 
C 356.41441 75.537823 333.281557 60.080945 307.824058 49.536104 
C 282.366559 38.991262 255.079498 33.563528 227.5245 33.563528 
C 199.969502 33.563528 172.682441 38.991262 147.224942 49.536104 
C 121.767443 60.080945 98.63459 75.537823 79.150264 95.022149 
C 59.665938 114.506476 44.209059 137.639329 33.664218 163.096828 
C 23.119377 188.554327 17.691643 215.841387 17.691643 243.396386 
C 17.691643 270.951384 23.119377 298.238445 33.664218 323.695944 
C 44.209059 349.153443 59.665938 372.286296 79.150264 391.770622 
C 98.63459 411.254948 121.767443 426.711826 147.224942 437.256668 
C 172.682441 447.801509 199.969502 453.229243 227.5245 453.229243 
C 255.079498 453.229243 282.366559 447.801509 307.824058 437.256668 
C 333.281557 426.711826 356.41441 411.254948 375.898736 391.770622 
C 395.383062 372.286296 410.839941 349.153443 421.384782 323.695944 
C 431.929623 298.238445 437.357357 270.951384 437.357357 243.396386 
" clip-path="url(#p71882f8f67)" style="fill: none; stroke: #e8e8e8; stroke-opacity: 0.25; stroke-width: 0.8; stroke-linecap: square"/>
     </g>
    </g>
   </g>
   <g id="patch_7">
    <path d="M 447.849 243.396386 
C 447.849 214.463637 442.149879 185.812224 431.077796 159.08185 
C 420.005713 132.351476 403.77599 108.06198 383.317448 87.603438 
C 362.858906 67.144895 338.56941 50.915173 311.839036 39.843089 
C 285.108662 28.771006 256.457248 23.071886 227.5245 23.071886 
C 198.591752 23.071886 169.940338 28.771006 143.209964 39.843089 
C 116.47959 50.915173 92.190094 67.144895 71.731552 87.603438 
C 51.27301 108.06198 35.043287 132.351476 23.971204 159.08185 
C 12.899121 185.812224 7.2 214.463637 7.2 243.396386 
C 7.2 272.329134 12.899121 300.980548 23.971204 327.710921 
C 35.043287 354.441295 51.27301 378.730791 71.731552 399.189334 
C 92.190094 419.647876 116.47959 435.877598 143.209964 446.949682 
C 169.940338 458.021765 198.591752 463.720886 227.5245 463.720886 
C 256.457248 463.720886 285.108662 458.021765 311.839036 446.949682 
C 338.56941 435.877598 362.858906 419.647876 383.317448 399.189334 
C 403.77599 378.730791 420.005713 354.441295 431.077796 327.710921 
C 442.149879 300.980548 447.849 272.329134 447.849 243.396386 
" style="fill: none; stroke: #000000; stroke-width: 0.8; stroke-linejoin: miter; stroke-linecap: square"/>
   </g>
   <g id="line2d_10">
    <path d="M 227.5245 243.396386 
L 274.210682 99.711093 
L 198.001309 221.946532 
L 145.383364 303.075414 
L 254.445756 326.251491 
L 227.5245 243.396386 
" clip-path="url(#p71882f8f67)" style="fill: none; stroke: #2e86ab; stroke-opacity: 0.9; stroke-width: 2.2; stroke-linecap: square"/>
    <defs>
     <path id="mc38c026d96" d="M 0 3.5 
C 0.928211 3.5 1.81853 3.131218 2.474874 2.474874 
C 3.131218 1.81853 3.5 0.928211 3.5 0 
C 3.5 -0.928211 3.131218 -1.81853 2.474874 -2.474874 
C 1.81853 -3.131218 0.928211 -3.5 0 -3.5 
C -0.928211 -3.5 -1.81853 -3.131218 -2.474874 -2.474874 
C -3.131218 -1.81853 -3.5 -0.928211 -3.5 0 
C -3.5 0.928211 -3.131218 1.81853 -2.474874 2.474874 
C -1.81853 3.131218 -0.928211 3.5 0 3.5 
z
" style="stroke: #ffffff; stroke-opacity: 0.9; stroke-width: 1.2"/>
    </defs>
    <g clip-path="url(#p71882f8f67)">
     <use xlink:href="#mc38c026d96" x="227.5245" y="243.396386" style="fill: #2e86ab; fill-opacity: 0.9; stroke: #ffffff; stroke-opacity: 0.9; stroke-width: 1.2"/>
     <use xlink:href="#mc38c026d96" x="274.210682" y="99.711093" style="fill: #2e86ab; fill-opacity: 0.9; stroke: #ffffff; stroke-opacity: 0.9; stroke-width: 1.2"/>
     <use xlink:href="#mc38c026d96" x="198.001309" y="221.946532" style="fill: #2e86ab; fill-opacity: 0.9; stroke: #ffffff; stroke-opacity: 0.9; stroke-width: 1.2"/>
     <use xlink:href="#mc38c026d96" x="145.383364" y="303.075414" style="fill: #2e86ab; fill-opacity: 0.9; stroke: #ffffff; stroke-opacity: 0.9; stroke-width: 1.2"/>
     <use xlink:href="#mc38c026d96" x="254.445756" y="326.251491" style="fill: #2e86ab; fill-opacity: 0.9; stroke: #ffffff; stroke-opacity: 0.9; stroke-width: 1.2"/>
     <use xlink:href="#mc38c026d96" x="227.5245" y="243.396386" style="fill: #2e86ab; fill-opacity: 0.9; stroke: #ffffff; stroke-opacity: 0.9; stroke-width: 1.2"/>
    </g>
   </g>
   <g id="line2d_11">
    <path d="M 437.357357 243.396386 
L 241.789722 199.492546 
L 227.5245 243.396386 
L 57.766153 366.733044 
L 292.366419 442.959292 
L 437.357357 243.396386 
" clip-path="url(#p71882f8f67)" style="fill: none; stroke-dasharray: 8.14,3.52; stroke-dashoffset: 0; stroke: #e07a5f; stroke-opacity: 0.9; stroke-width: 2.2"/>
    <defs>
     <path id="m0b0f942d3b" d="M -3.5 3.5 
L 3.5 3.5 
L 3.5 -3.5 
L -3.5 -3.5 
z
" style="stroke: #ffffff; stroke-opacity: 0.9; stroke-width: 1.2; stroke-linejoin: miter"/>
    </defs>
    <g clip-path="url(#p71882f8f67)">
     <use xlink:href="#m0b0f942d3b" x="437.357357" y="243.396386" style="fill: #e07a5f; fill-opacity: 0.9; stroke: #ffffff; stroke-opacity: 0.9; stroke-width: 1.2; stroke-linejoin: miter"/>
     <use xlink:href="#m0b0f942d3b" x="241.789722" y="199.492546" style="fill: #e07a5f; fill-opacity: 0.9; stroke: #ffffff; stroke-opacity: 0.9; stroke-width: 1.2; stroke-linejoin: miter"/>
     <use xlink:href="#m0b0f942d3b" x="227.5245" y="243.396386" style="fill: #e07a5f; fill-opacity: 0.9; stroke: #ffffff; stroke-opacity: 0.9; stroke-width: 1.2; stroke-linejoin: miter"/>
     <use xlink:href="#m0b0f942d3b" x="57.766153" y="366.733044" style="fill: #e07a5f; fill-opacity: 0.9; stroke: #ffffff; stroke-opacity: 0.9; stroke-width: 1.2; stroke-linejoin: miter"/>
     <use xlink:href="#m0b0f942d3b" x="292.366419" y="442.959292" style="fill: #e07a5f; fill-opacity: 0.9; stroke: #ffffff; stroke-opacity: 0.9; stroke-width: 1.2; stroke-linejoin: miter"/>
     <use xlink:href="#m0b0f942d3b" x="437.357357" y="243.396386" style="fill: #e07a5f; fill-opacity: 0.9; stroke: #ffffff; stroke-opacity: 0.9; stroke-width: 1.2; stroke-linejoin: miter"/>
    </g>
   </g>
   <g id="line2d_12">
    <path d="M 227.5245 243.396386 
L 230.118177 235.413869 
L 181.974434 210.302326 
L 124.84808 317.995171 
L 229.994616 250.998622 
L 227.5245 243.396386 
" clip-path="url(#p71882f8f67)" style="fill: none; stroke-dasharray: 2.2,3.63; stroke-dashoffset: 0; stroke: #9b59b6; stroke-opacity: 0.9; stroke-width: 2.2"/>
    <defs>
     <path id="m792e120bbc" d="M 0 -3.5 
L -3.5 3.5 
L 3.5 3.5 
z
" style="stroke: #ffffff; stroke-opacity: 0.9; stroke-width: 1.2; stroke-linejoin: miter"/>
    </defs>
    <g clip-path="url(#p71882f8f67)">
     <use xlink:href="#m792e120bbc" x="227.5245" y="243.396386" style="fill: #9b59b6; fill-opacity: 0.9; stroke: #ffffff; stroke-opacity: 0.9; stroke-width: 1.2; stroke-linejoin: miter"/>
     <use xlink:href="#m792e120bbc" x="230.118177" y="235.413869" style="fill: #9b59b6; fill-opacity: 0.9; stroke: #ffffff; stroke-opacity: 0.9; stroke-width: 1.2; stroke-linejoin: miter"/>
     <use xlink:href="#m792e120bbc" x="181.974434" y="210.302326" style="fill: #9b59b6; fill-opacity: 0.9; stroke: #ffffff; stroke-opacity: 0.9; stroke-width: 1.2; stroke-linejoin: miter"/>
     <use xlink:href="#m792e120bbc" x="124.84808" y="317.995171" style="fill: #9b59b6; fill-opacity: 0.9; stroke: #ffffff; stroke-opacity: 0.9; stroke-width: 1.2; stroke-linejoin: miter"/>
     <use xlink:href="#m792e120bbc" x="229.994616" y="250.998622" style="fill: #9b59b6; fill-opacity: 0.9; stroke: #ffffff; stroke-opacity: 0.9; stroke-width: 1.2; stroke-linejoin: miter"/>
     <use xlink:href="#m792e120bbc" x="227.5245" y="243.396386" style="fill: #9b59b6; fill-opacity: 0.9; stroke: #ffffff; stroke-opacity: 0.9; stroke-width: 1.2; stroke-linejoin: miter"/>
    </g>
   </g>
   <g id="line2d_13">
    <path d="M 227.5245 243.396386 
L 227.5245 243.396386 
L 85.813184 140.437088 
L 227.5245 243.396386 
L 229.994616 250.998622 
L 227.5245 243.396386 
" clip-path="url(#p71882f8f67)" style="fill: none; stroke-dasharray: 14.08,3.52,2.2,3.52; stroke-dashoffset: 0; stroke: #6c757d; stroke-opacity: 0.9; stroke-width: 2.2"/>
    <defs>
     <path id="mba99be07d0" d="M -0 4.949747 
L 2.969848 0 
L 0 -4.949747 
L -2.969848 -0 
z
" style="stroke: #ffffff; stroke-opacity: 0.9; stroke-width: 1.2; stroke-linejoin: miter"/>
    </defs>
    <g clip-path="url(#p71882f8f67)">
     <use xlink:href="#mba99be07d0" x="227.5245" y="243.396386" style="fill: #6c757d; fill-opacity: 0.9; stroke: #ffffff; stroke-opacity: 0.9; stroke-width: 1.2; stroke-linejoin: miter"/>
     <use xlink:href="#mba99be07d0" x="227.5245" y="243.396386" style="fill: #6c757d; fill-opacity: 0.9; stroke: #ffffff; stroke-opacity: 0.9; stroke-width: 1.2; stroke-linejoin: miter"/>
     <use xlink:href="#mba99be07d0" x="85.813184" y="140.437088" style="fill: #6c757d; fill-opacity: 0.9; stroke: #ffffff; stroke-opacity: 0.9; stroke-width: 1.2; stroke-linejoin: miter"/>
     <use xlink:href="#mba99be07d0" x="227.5245" y="243.396386" style="fill: #6c757d; fill-opacity: 0.9; stroke: #ffffff; stroke-opacity: 0.9; stroke-width: 1.2; stroke-linejoin: miter"/>
     <use xlink:href="#mba99be07d0" x="229.994616" y="250.998622" style="fill: #6c757d; fill-opacity: 0.9; stroke: #ffffff; stroke-opacity: 0.9; stroke-width: 1.2; stroke-linejoin: miter"/>
     <use xlink:href="#mba99be07d0" x="227.5245" y="243.396386" style="fill: #6c757d; fill-opacity: 0.9; stroke: #ffffff; stroke-opacity: 0.9; stroke-width: 1.2; stroke-linejoin: miter"/>
    </g>
   </g>
   <g id="text_6">
    <!-- P1 -->
    <g style="fill: #2c3e50" transform="translate(602.07615 69.539129) scale(0.1 -0.1)">
     <defs>
      <path id="TimesNewRomanPSMT-50" d="M 1313 1984 
L 1313 750 
Q 1313 350 1400 253 
Q 1519 116 1759 116 
L 1922 116 
L 1922 0 
L 106 0 
L 106 116 
L 266 116 
Q 534 116 650 291 
Q 713 388 713 750 
L 713 3488 
Q 713 3888 628 3984 
Q 506 4122 266 4122 
L 106 4122 
L 106 4238 
L 1659 4238 
Q 2228 4238 2556 4120 
Q 2884 4003 3109 3725 
Q 3334 3447 3334 3066 
Q 3334 2547 2992 2222 
Q 2650 1897 2025 1897 
Q 1872 1897 1694 1919 
Q 1516 1941 1313 1984 
z
M 1313 2163 
Q 1478 2131 1606 2115 
Q 1734 2100 1825 2100 
Q 2150 2100 2386 2351 
Q 2622 2603 2622 3003 
Q 2622 3278 2509 3514 
Q 2397 3750 2190 3867 
Q 1984 3984 1722 3984 
Q 1563 3984 1313 3925 
L 1313 2163 
z
" transform="scale(0.015625)"/>
      <path id="TimesNewRomanPSMT-31" d="M 750 3822 
L 1781 4325 
L 1884 4325 
L 1884 747 
Q 1884 391 1914 303 
Q 1944 216 2037 169 
Q 2131 122 2419 116 
L 2419 0 
L 825 0 
L 825 116 
Q 1125 122 1212 167 
Q 1300 213 1334 289 
Q 1369 366 1369 747 
L 1369 3034 
Q 1369 3497 1338 3628 
Q 1316 3728 1258 3775 
Q 1200 3822 1119 3822 
Q 1003 3822 797 3725 
L 750 3822 
z
" transform="scale(0.015625)"/>
     </defs>
     <use xlink:href="#TimesNewRomanPSMT-50"/>
     <use xlink:href="#TimesNewRomanPSMT-31" x="55.615234"/>
    </g>
   </g>
   <g id="text_7">
    <!-- P4 -->
    <g style="fill: #2c3e50" transform="translate(602.07615 113.604029) scale(0.1 -0.1)">
     <defs>
      <path id="TimesNewRomanPSMT-34" d="M 2978 1563 
L 2978 1119 
L 2409 1119 
L 2409 0 
L 1894 0 
L 1894 1119 
L 100 1119 
L 100 1519 
L 2066 4325 
L 2409 4325 
L 2409 1563 
L 2978 1563 
z
M 1894 1563 
L 1894 3666 
L 406 1563 
L 1894 1563 
z
" transform="scale(0.015625)"/>
     </defs>
     <use xlink:href="#TimesNewRomanPSMT-50"/>
     <use xlink:href="#TimesNewRomanPSMT-34" x="55.615234"/>
    </g>
   </g>
   <g id="text_8">
    <!-- P8 -->
    <g style="fill: #2c3e50" transform="translate(602.07615 157.668929) scale(0.1 -0.1)">
     <defs>
      <path id="TimesNewRomanPSMT-38" d="M 1228 2134 
Q 725 2547 579 2797 
Q 434 3047 434 3316 
Q 434 3728 753 4026 
Q 1072 4325 1600 4325 
Q 2113 4325 2425 4047 
Q 2738 3769 2738 3413 
Q 2738 3175 2569 2928 
Q 2400 2681 1866 2347 
Q 2416 1922 2594 1678 
Q 2831 1359 2831 1006 
Q 2831 559 2490 242 
Q 2150 -75 1597 -75 
Q 994 -75 656 303 
Q 388 606 388 966 
Q 388 1247 577 1523 
Q 766 1800 1228 2134 
z
M 1719 2469 
Q 2094 2806 2194 3001 
Q 2294 3197 2294 3444 
Q 2294 3772 2109 3958 
Q 1925 4144 1606 4144 
Q 1288 4144 1088 3959 
Q 888 3775 888 3528 
Q 888 3366 970 3203 
Q 1053 3041 1206 2894 
L 1719 2469 
z
M 1375 2016 
Q 1116 1797 991 1539 
Q 866 1281 866 981 
Q 866 578 1086 336 
Q 1306 94 1647 94 
Q 1984 94 2187 284 
Q 2391 475 2391 747 
Q 2391 972 2272 1150 
Q 2050 1481 1375 2016 
z
" transform="scale(0.015625)"/>
     </defs>
     <use xlink:href="#TimesNewRomanPSMT-50"/>
     <use xlink:href="#TimesNewRomanPSMT-38" x="55.615234"/>
    </g>
   </g>
   <g id="text_9">
    <!-- P0 -->
    <g style="fill: #2c3e50" transform="translate(602.07615 201.733829) scale(0.1 -0.1)">
     <defs>
      <path id="TimesNewRomanPSMT-30" d="M 231 2094 
Q 231 2819 450 3342 
Q 669 3866 1031 4122 
Q 1313 4325 1613 4325 
Q 2100 4325 2488 3828 
Q 2972 3213 2972 2159 
Q 2972 1422 2759 906 
Q 2547 391 2217 158 
Q 1888 -75 1581 -75 
Q 975 -75 572 641 
Q 231 1244 231 2094 
z
M 844 2016 
Q 844 1141 1059 588 
Q 1238 122 1591 122 
Q 1759 122 1940 273 
Q 2122 425 2216 781 
Q 2359 1319 2359 2297 
Q 2359 3022 2209 3506 
Q 2097 3866 1919 4016 
Q 1791 4119 1609 4119 
Q 1397 4119 1231 3928 
Q 1006 3669 925 3112 
Q 844 2556 844 2016 
z
" transform="scale(0.015625)"/>
     </defs>
     <use xlink:href="#TimesNewRomanPSMT-50"/>
     <use xlink:href="#TimesNewRomanPSMT-30" x="55.615234"/>
    </g>
   </g>
   <g id="line2d_14">
    <path d="M 535.9788 67.136786 
L 580.0437 67.136786 
" style="fill: none; stroke: #2e86ab; stroke-width: 2; stroke-linecap: square"/>
   </g>
   <g id="line2d_15">
    <path d="M 535.9788 111.201686 
L 580.0437 111.201686 
" style="fill: none; stroke-dasharray: 7.4,3.2; stroke-dashoffset: 0; stroke: #e07a5f; stroke-width: 2"/>
   </g>
   <g id="line2d_16">
    <path d="M 535.9788 155.266586 
L 580.0437 155.266586 
" style="fill: none; stroke-dasharray: 2,3.3; stroke-dashoffset: 0; stroke: #9b59b6; stroke-width: 2"/>
   </g>
   <g id="line2d_17">
    <path d="M 535.9788 199.331486 
L 580.0437 199.331486 
" style="fill: none; stroke-dasharray: 12.8,3.2,2,3.2; stroke-dashoffset: 0; stroke: #6c757d; stroke-width: 2"/>
   </g>
   <g id="PathCollection_1">
    <defs>
     <path id="mc00bf9becd" d="M 0 4.472136 
C 1.186024 4.472136 2.323632 4.000923 3.162278 3.162278 
C 4.000923 2.323632 4.472136 1.186024 4.472136 0 
C 4.472136 -1.186024 4.000923 -2.323632 3.162278 -3.162278 
C 2.323632 -4.000923 1.186024 -4.472136 0 -4.472136 
C -1.186024 -4.472136 -2.323632 -4.000923 -3.162278 -3.162278 
C -4.000923 -2.323632 -4.472136 -1.186024 -4.472136 0 
C -4.472136 1.186024 -4.000923 2.323632 -3.162278 3.162278 
C -2.323632 4.000923 -1.186024 4.472136 0 4.472136 
z
" style="stroke: #ffffff; stroke-width: 1.2"/>
    </defs>
    <g>
     <use xlink:href="#mc00bf9becd" x="558.01125" y="67.136786" style="fill: #2e86ab; stroke: #ffffff; stroke-width: 1.2"/>
    </g>
   </g>
   <g id="PathCollection_2">
    <defs>
     <path id="m225ec9b5f0" d="M -4.472136 4.472136 
L 4.472136 4.472136 
L 4.472136 -4.472136 
L -4.472136 -4.472136 
z
" style="stroke: #ffffff; stroke-width: 1.2"/>
    </defs>
    <g>
     <use xlink:href="#m225ec9b5f0" x="558.01125" y="111.201686" style="fill: #e07a5f; stroke: #ffffff; stroke-width: 1.2"/>
    </g>
   </g>
   <g id="PathCollection_3">
    <defs>
     <path id="mc3ac871f90" d="M 0 -4.472136 
L -4.472136 4.472136 
L 4.472136 4.472136 
z
" style="stroke: #ffffff; stroke-width: 1.2"/>
    </defs>
    <g>
     <use xlink:href="#mc3ac871f90" x="558.01125" y="155.266586" style="fill: #9b59b6; stroke: #ffffff; stroke-width: 1.2"/>
    </g>
   </g>
   <g id="PathCollection_4">
    <defs>
     <path id="m35ad0a8d5a" d="M -0 6.324555 
L 3.794733 0 
L 0 -6.324555 
L -3.794733 -0 
z
" style="stroke: #ffffff; stroke-width: 1.2"/>
    </defs>
    <g>
     <use xlink:href="#m35ad0a8d5a" x="558.01125" y="199.331486" style="fill: #6c757d; stroke: #ffffff; stroke-width: 1.2"/>
    </g>
   </g>
  </g>
 </g>
 <defs>
  <clipPath id="p71882f8f67">
   <path d="M 447.849 243.396386 
C 447.849 214.463637 442.149879 185.812224 431.077796 159.08185 
C 420.005713 132.351476 403.77599 108.06198 383.317448 87.603438 
C 362.858906 67.144895 338.56941 50.915173 311.839036 39.843089 
C 285.108662 28.771006 256.457248 23.071886 227.5245 23.071886 
C 198.591752 23.071886 169.940338 28.771006 143.209964 39.843089 
C 116.47959 50.915173 92.190094 67.144895 71.731552 87.603438 
C 51.27301 108.06198 35.043287 132.351476 23.971204 159.08185 
C 12.899121 185.812224 7.2 214.463637 7.2 243.396386 
C 7.2 272.329134 12.899121 300.980548 23.971204 327.710921 
C 35.043287 354.441295 51.27301 378.730791 71.731552 399.189334 
C 92.190094 419.647876 116.47959 435.877598 143.209964 446.949682 
C 169.940338 458.021765 198.591752 463.720886 227.5245 463.720886 
C 256.457248 463.720886 285.108662 458.021765 311.839036 446.949682 
C 338.56941 435.877598 362.858906 419.647876 383.317448 399.189334 
C 403.77599 378.730791 420.005713 354.441295 431.077796 327.710921 
C 442.149879 300.980548 447.849 272.329134 447.849 243.396386 
M 227.5245 243.396386 
C 227.5245 243.396386 227.5245 243.396386 227.5245 243.396386 
C 227.5245 243.396386 227.5245 243.396386 227.5245 243.396386 
C 227.5245 243.396386 227.5245 243.396386 227.5245 243.396386 
C 227.5245 243.396386 227.5245 243.396386 227.5245 243.396386 
C 227.5245 243.396386 227.5245 243.396386 227.5245 243.396386 
C 227.5245 243.396386 227.5245 243.396386 227.5245 243.396386 
C 227.5245 243.396386 227.5245 243.396386 227.5245 243.396386 
C 227.5245 243.396386 227.5245 243.396386 227.5245 243.396386 
C 227.5245 243.396386 227.5245 243.396386 227.5245 243.396386 
C 227.5245 243.396386 227.5245 243.396386 227.5245 243.396386 
C 227.5245 243.396386 227.5245 243.396386 227.5245 243.396386 
C 227.5245 243.396386 227.5245 243.396386 227.5245 243.396386 
C 227.5245 243.396386 227.5245 243.396386 227.5245 243.396386 
C 227.5245 243.396386 227.5245 243.396386 227.5245 243.396386 
C 227.5245 243.396386 227.5245 243.396386 227.5245 243.396386 
C 227.5245 243.396386 227.5245 243.396386 227.5245 243.396386 
z
"/>
  </clipPath>
 </defs>
</svg>
